<svg width="47" height="46" viewBox="0 0 47 46" fill="none" xmlns="http://www.w3.org/2000/svg">
<ellipse cx="23.5" cy="23" rx="23.5" ry="23" fill="#B3B0F8"/>
<path d="M20.0825 33.7054C20.0824 33.5124 20.0366 33.3217 19.9484 33.1469C19.8602 32.972 19.7318 32.8174 19.5721 32.6938C19.4125 32.5702 19.2256 32.4807 19.0247 32.4317C18.8238 32.3827 18.6137 32.3753 18.4093 32.41C16.5518 32.7263 14.2079 32.7737 13.5854 31.1475C13.042 29.8877 12.1419 28.788 10.9806 27.965C10.8975 27.9229 10.8182 27.8744 10.7438 27.82C10.6421 27.5711 10.4617 27.3567 10.2263 27.205C9.99087 27.0532 9.71155 26.9713 9.42508 26.97H9.41799C9.04315 26.97 8.68355 27.108 8.41783 27.3537C8.15211 27.5994 8.0019 27.9329 8.00002 28.2813C7.99435 29.3553 9.14857 30.0445 9.61792 30.2764C10.1709 30.7928 10.6153 31.4007 10.9281 32.0687C11.4457 33.4168 12.9459 35.4634 17.2608 35.1998L17.265 35.329L17.2707 35.6822C17.2707 36.0317 17.4201 36.3669 17.686 36.614C17.9519 36.8612 18.3126 37 18.6887 37C19.0647 37 19.4254 36.8612 19.6913 36.614C19.9572 36.3669 20.1066 36.0317 20.1066 35.6822L20.0995 35.2631C20.0925 35.0127 20.0825 34.6516 20.0825 33.7054V33.7054ZM35.208 13.772C35.2584 13.5891 35.301 13.4045 35.3356 13.2185C35.565 11.7499 35.3652 10.251 34.7571 8.87891C34.6804 8.70014 34.5627 8.53911 34.412 8.40708C34.2614 8.27505 34.0815 8.17522 33.885 8.11457C33.3802 7.95643 31.517 7.6441 27.9522 9.76185C24.9895 9.11391 21.9053 9.11391 18.9425 9.76185C15.3919 7.67441 13.5386 7.95906 13.0381 8.10798C12.8366 8.16609 12.6517 8.26537 12.4968 8.39854C12.342 8.53171 12.2212 8.69539 12.1433 8.87759C11.5222 10.2762 11.3241 11.8059 11.5705 13.3015C11.6059 13.4689 11.6428 13.6257 11.6825 13.768C10.5073 15.2224 9.88126 16.9966 9.90152 18.8153C9.89798 19.2206 9.91833 19.6258 9.96249 20.029C10.4361 26.095 14.69 27.9149 17.6535 28.5409C17.5892 28.7141 17.5334 28.89 17.4862 29.068C17.3962 29.4074 17.4548 29.7661 17.6494 30.0653C17.8439 30.3644 18.1583 30.5795 18.5235 30.6632C18.8886 30.7469 19.2746 30.6924 19.5965 30.5116C19.9184 30.3308 20.1499 30.0386 20.2399 29.6992C20.3302 29.2601 20.5616 28.8567 20.9035 28.5422C21.1098 28.3739 21.2591 28.1535 21.3333 27.9079C21.4074 27.6622 21.4033 27.4018 21.3213 27.1583C21.2393 26.9148 21.0831 26.6987 20.8715 26.5361C20.6599 26.3736 20.4021 26.2716 20.1293 26.2426C15.2317 25.722 13.1047 23.8679 12.7842 19.7866C12.7492 19.4634 12.7335 19.1387 12.7375 18.814C12.7149 17.518 13.1759 16.2547 14.042 15.2387C14.1286 15.133 14.2209 15.0314 14.3185 14.9343C14.4922 14.7537 14.609 14.5321 14.6561 14.2938C14.7031 14.0555 14.6785 13.8097 14.5851 13.5835C14.4896 13.346 14.4161 13.1013 14.3653 12.8522C14.2498 12.1424 14.2879 11.4184 14.4773 10.7225C15.7097 11.0462 16.8696 11.5729 17.9017 12.2776C18.0722 12.3831 18.2652 12.4534 18.4675 12.4837C18.6698 12.5139 18.8768 12.5034 19.0744 12.4529C21.9403 11.73 24.9618 11.7304 27.8275 12.4542C28.0261 12.5047 28.2342 12.5146 28.4374 12.4832C28.6406 12.4518 28.834 12.3799 29.0044 12.2723C30.032 11.5649 31.1874 11.0338 32.416 10.7041C32.604 11.383 32.646 12.0897 32.5394 12.7836C32.488 13.0569 32.4077 13.3249 32.2997 13.5835C32.2063 13.8097 32.1817 14.0555 32.2287 14.2938C32.2758 14.5321 32.3926 14.7537 32.5663 14.9343C32.6769 15.049 32.7861 15.1715 32.8839 15.2875C33.7438 16.2864 34.1967 17.5352 34.163 18.814C34.1653 19.156 34.1473 19.4978 34.1091 19.8379C33.7971 23.8652 31.6631 25.7207 26.7427 26.2426C26.4697 26.2714 26.2115 26.3733 25.9996 26.5359C25.7877 26.6986 25.6313 26.9149 25.5492 27.1587C25.4672 27.4024 25.4632 27.6631 25.5376 27.909C25.6121 28.1548 25.7618 28.3753 25.9685 28.5435C26.3209 28.8664 26.5525 29.2858 26.6293 29.7401C26.7255 30.0931 26.7699 30.4566 26.7612 30.8207V33.8952C26.747 34.7492 26.747 35.3883 26.747 35.6822C26.747 36.0317 26.8964 36.3669 27.1623 36.614C27.4282 36.8612 27.7889 37 28.1649 37C28.541 37 28.9017 36.8612 29.1676 36.614C29.4335 36.3669 29.5829 36.0317 29.5829 35.6822C29.5829 35.3962 29.5829 34.7702 29.5971 33.9163V30.8194C29.6084 30.2369 29.5344 29.6557 29.3773 29.0917C29.3325 28.9065 29.2776 28.7235 29.2128 28.5435C31.3698 28.2103 33.3296 27.1766 34.7434 25.6263C36.1573 24.0761 36.9334 22.11 36.9337 20.0778C36.9804 19.658 37.0022 19.2361 36.9989 18.814C37.0302 16.9938 36.3992 15.2171 35.208 13.772V13.772Z" fill="white"/>
</svg>
