<svg width="47" height="46" viewBox="0 0 47 46" fill="none" xmlns="http://www.w3.org/2000/svg">
<ellipse cx="23.5" cy="23" rx="23.5" ry="23" fill="#FBEEB3"/>
<path d="M30.0624 8H17.9361C15.5667 8.00278 13.2952 8.94537 11.6199 10.6209C9.94459 12.2965 9.00239 14.5682 9 16.9376L9 29.0639C9.00278 31.4333 9.94537 33.7048 11.6209 35.3801C13.2965 37.0554 15.5682 37.9976 17.9376 38H30.0639C32.4333 37.9972 34.7048 37.0546 36.3801 35.3791C38.0554 33.7035 38.9976 31.4318 39 29.0624V16.9361C38.9972 14.5667 38.0546 12.2952 36.3791 10.6199C34.7035 8.94459 32.4318 8.00239 30.0624 8V8ZM35.9827 29.0624C35.9827 29.8398 35.8296 30.6097 35.5321 31.328C35.2345 32.0463 34.7984 32.6989 34.2487 33.2487C33.6989 33.7984 33.0463 34.2345 32.328 34.5321C31.6097 34.8296 30.8398 34.9827 30.0624 34.9827H17.9361C16.3662 34.9823 14.8607 34.3584 13.7508 33.2482C12.6408 32.1379 12.0173 30.6323 12.0173 29.0624V16.9361C12.0177 15.3662 12.6416 13.8607 13.7518 12.7508C14.8621 11.6408 16.3677 11.0173 17.9376 11.0173H30.0639C31.6338 11.0177 33.1393 11.6416 34.2492 12.7518C35.3592 13.8621 35.9827 15.3677 35.9827 16.9376V29.0639V29.0624Z" fill="white"/>
<path d="M23.9993 15.2411C21.9428 15.2443 19.9715 16.0627 18.5175 17.517C17.0635 18.9713 16.2455 20.9427 16.2427 22.9992C16.2451 25.0561 17.0632 27.0282 18.5175 28.4829C19.9719 29.9375 21.9438 30.756 24.0008 30.7587C26.058 30.7564 28.0303 29.9381 29.485 28.4834C30.9397 27.0287 31.758 25.0564 31.7604 22.9992C31.7572 20.9422 30.9383 18.9704 29.4834 17.5164C28.0285 16.0623 26.0563 15.2446 23.9993 15.2426V15.2411ZM23.9993 27.7415C22.7419 27.7415 21.5361 27.242 20.647 26.3529C19.758 25.4638 19.2585 24.258 19.2585 23.0007C19.2585 21.7433 19.758 20.5375 20.647 19.6484C21.5361 18.7593 22.7419 18.2599 23.9993 18.2599C25.2566 18.2599 26.4625 18.7593 27.3515 19.6484C28.2406 20.5375 28.7401 21.7433 28.7401 23.0007C28.7401 24.258 28.2406 25.4638 27.3515 26.3529C26.4625 27.242 25.2566 27.7415 23.9993 27.7415V27.7415Z" fill="white"/>
<path d="M31.7739 17.1585C32.8004 17.1585 33.6326 16.3264 33.6326 15.2998C33.6326 14.2732 32.8004 13.441 31.7739 13.441C30.7473 13.441 29.9151 14.2732 29.9151 15.2998C29.9151 16.3264 30.7473 17.1585 31.7739 17.1585Z" fill="white"/>
</svg>
