<svg width="47" height="46" viewBox="0 0 47 46" fill="none" xmlns="http://www.w3.org/2000/svg">
<ellipse cx="23.5" cy="23" rx="23.5" ry="23" fill="#B4E2BA"/>
<g clip-path="url(#clip0_89_975)">
<path d="M33.25 8.625C34.5429 8.625 35.7829 9.11228 36.6971 9.97963C37.6114 10.847 38.125 12.0234 38.125 13.25V31.75C38.125 32.9766 37.6114 34.153 36.6971 35.0204C35.7829 35.8877 34.5429 36.375 33.25 36.375H13.75C12.4571 36.375 11.2171 35.8877 10.3029 35.0204C9.38861 34.153 8.875 32.9766 8.875 31.75V13.25C8.875 12.0234 9.38861 10.847 10.3029 9.97963C11.2171 9.11228 12.4571 8.625 13.75 8.625H33.25ZM33.25 11.7083H13.75C13.319 11.7083 12.9057 11.8708 12.601 12.1599C12.2962 12.449 12.125 12.8411 12.125 13.25V31.75C12.125 32.1589 12.2962 32.551 12.601 32.8401C12.9057 33.1292 13.319 33.2917 13.75 33.2917H33.25C33.681 33.2917 34.0943 33.1292 34.399 32.8401C34.7038 32.551 34.875 32.1589 34.875 31.75V13.25C34.875 12.8411 34.7038 12.449 34.399 12.1599C34.0943 11.8708 33.681 11.7083 33.25 11.7083ZM17 19.4167C17.398 19.4167 17.7822 19.5553 18.0796 19.8063C18.377 20.0572 18.5671 20.4029 18.6136 20.778L18.625 20.9583V28.6667C18.6245 29.0596 18.4659 29.4375 18.1816 29.7233C17.8973 30.009 17.5087 30.1809 17.0952 30.204C16.6818 30.227 16.2746 30.0994 15.957 29.8472C15.6394 29.595 15.4353 29.2372 15.3864 28.847L15.375 28.6667V20.9583C15.375 20.5495 15.5462 20.1573 15.851 19.8682C16.1557 19.5791 16.569 19.4167 17 19.4167ZM21.875 17.875C22.2556 17.8749 22.6241 18.0016 22.9163 18.2329C23.2085 18.4642 23.4059 18.7855 23.474 19.1407C23.801 18.9608 24.1391 18.7997 24.4864 18.6582C25.5703 18.2188 27.1936 17.9767 28.6594 18.413C29.428 18.6443 30.1999 19.076 30.7719 19.8113C31.2838 20.4665 31.56 21.2636 31.6152 22.1593L31.625 22.5V28.6667C31.6245 29.0596 31.4659 29.4375 31.1816 29.7233C30.8973 30.009 30.5087 30.1809 30.0952 30.204C29.6818 30.227 29.2746 30.0994 28.957 29.8472C28.6394 29.595 28.4353 29.2372 28.3864 28.847L28.375 28.6667V22.5C28.375 21.9912 28.245 21.7538 28.1605 21.6444C28.0392 21.5012 27.8721 21.3995 27.6844 21.3545C27.1189 21.185 26.3047 21.2744 25.7636 21.4933C24.9511 21.8232 24.2069 22.3412 23.6999 22.8207L23.5 23.0242V28.6667C23.4995 29.0596 23.3409 29.4375 23.0566 29.7233C22.7723 30.009 22.3837 30.1809 21.9702 30.204C21.5568 30.227 21.1496 30.0994 20.832 29.8472C20.5144 29.595 20.3103 29.2372 20.2614 28.847L20.25 28.6667V19.4167C20.25 19.0078 20.4212 18.6157 20.726 18.3265C21.0307 18.0374 21.444 17.875 21.875 17.875V17.875ZM17 14.7917C17.431 14.7917 17.8443 14.9541 18.149 15.2432C18.4538 15.5323 18.625 15.9245 18.625 16.3333C18.625 16.7422 18.4538 17.1343 18.149 17.4235C17.8443 17.7126 17.431 17.875 17 17.875C16.569 17.875 16.1557 17.7126 15.851 17.4235C15.5462 17.1343 15.375 16.7422 15.375 16.3333C15.375 15.9245 15.5462 15.5323 15.851 15.2432C16.1557 14.9541 16.569 14.7917 17 14.7917V14.7917Z" fill="white"/>
</g>
<defs>
<clipPath id="clip0_89_975">
<rect width="39" height="37" fill="white" transform="translate(4 4)"/>
</clipPath>
</defs>
</svg>
