<svg width="1600" height="1200" viewBox="0 0 1600 1200" fill="none" xmlns="http://www.w3.org/2000/svg">
<g clip-path="url(#clip0_99_114)">
<path d="M839.74 1008.74L839.78 816.22L809.26 816.19L809.23 1008.74H839.74Z" fill="#B3B0F8"/>
<path d="M943.43 816.25L974.15 642.18C975.49 634.6 973.77 627.49 969.31 622.16C967.05 619.55 964.24 617.47 961.07 616.07C957.91 614.67 954.48 614 951.02 614.09H834.37C818.88 614.09 804.06 626.69 801.32 642.17L770.63 816.25H943.43ZM901.66 743.47C902.91 743.44 904.17 743.68 905.32 744.19C906.48 744.69 907.5 745.45 908.33 746.4C909.16 747.42 909.76 748.61 910.08 749.88C910.39 751.15 910.42 752.48 910.17 753.77C909.62 756.6 908.12 759.17 905.93 761.04C903.73 762.92 900.96 763.99 898.07 764.08H847.02C845.74 764.12 844.45 763.88 843.27 763.35C842.09 762.83 841.04 762.02 840.22 761.03C839.4 760.03 838.82 758.86 838.52 757.6C838.22 756.35 838.22 755.04 838.51 753.78C839.06 750.94 840.56 748.38 842.75 746.5C844.95 744.63 847.72 743.56 850.61 743.47H901.66Z" fill="#8782BB"/>
<path opacity="0.2" d="M943.43 816.25L946.83 797.02L778.25 773.36L770.63 816.25H943.43Z" fill="#939393"/>
<path d="M748.82 985.58H900.82C908.99 985.58 915.61 992.21 915.61 1000.38V1001.22C915.61 1009.4 908.99 1016.02 900.82 1016.02H748.82C740.65 1016.02 734.03 1009.4 734.03 1001.22V1000.38C734.03 992.21 740.65 985.58 748.82 985.58Z" fill="#8782BB"/>
<path d="M749.35 1046.5C752.36 1046.5 755.3 1045.61 757.81 1043.94C760.31 1042.26 762.26 1039.89 763.41 1037.11C764.56 1034.33 764.87 1031.26 764.28 1028.32C763.69 1025.37 762.24 1022.66 760.11 1020.53C757.98 1018.39 755.27 1016.95 752.33 1016.36C749.37 1015.77 746.31 1016.07 743.53 1017.22C740.74 1018.37 738.37 1020.33 736.69 1022.83C735.03 1025.34 734.13 1028.28 734.13 1031.28C734.14 1035.31 735.74 1039.18 738.59 1042.04C741.45 1044.89 745.31 1046.49 749.35 1046.5Z" fill="#B3B0F8"/>
<path d="M824.87 1046.5C827.88 1046.5 830.82 1045.61 833.33 1043.94C835.83 1042.26 837.78 1039.89 838.93 1037.11C840.08 1034.33 840.39 1031.26 839.8 1028.32C839.21 1025.37 837.76 1022.66 835.63 1020.53C833.5 1018.39 830.79 1016.95 827.84 1016.36C824.89 1015.77 821.82 1016.07 819.05 1017.22C816.27 1018.37 813.89 1020.33 812.22 1022.83C810.55 1025.34 809.65 1028.28 809.65 1031.28C809.66 1035.31 811.27 1039.18 814.11 1042.04C816.97 1044.89 820.83 1046.49 824.87 1046.5Z" fill="#B3B0F8"/>
<path d="M900.39 1046.5C903.4 1046.5 906.34 1045.61 908.85 1043.94C911.35 1042.26 913.3 1039.89 914.45 1037.11C915.6 1034.32 915.91 1031.26 915.32 1028.32C914.73 1025.37 913.28 1022.66 911.15 1020.53C909.02 1018.39 906.31 1016.95 903.36 1016.36C900.41 1015.77 897.35 1016.07 894.57 1017.22C891.79 1018.37 889.41 1020.33 887.74 1022.83C886.07 1025.34 885.17 1028.28 885.17 1031.28C885.18 1035.31 886.79 1039.18 889.63 1042.04C892.49 1044.89 896.35 1046.49 900.39 1046.5Z" fill="#B3B0F8"/>
<path d="M641.24 804.37H796.5C804.67 804.37 811.3 811 811.3 819.17V820.02C811.3 828.18 804.67 834.81 796.5 834.81H641.24C633.06 834.81 626.44 828.18 626.44 820.02V819.17C626.44 811 633.06 804.37 641.24 804.37Z" fill="#8782BB"/>
<path d="M771.71 804.37H943.22C951.39 804.37 958.02 811 958.02 819.17V820.02C958.02 828.18 951.39 834.81 943.22 834.81H771.71C763.54 834.81 756.91 828.18 756.91 820.02V819.17C756.91 811 763.54 804.37 771.71 804.37Z" fill="#8782BB"/>
<path d="M773.19 802.19H944.9" stroke="#939393" stroke-width="4" stroke-linecap="round" stroke-linejoin="round"/>
<path d="M832.63 399.055L833.8 377.205C819.84 379.865 806.09 376.135 799.8 366.755C793.73 357.165 794.79 345.125 797.14 331.695C797.88 327.325 798.2 321.255 798.31 315.815C798.84 303.455 799.48 286.505 805.98 276.915C816.75 260.715 834.12 261.145 859.81 261.145C872.91 261.145 878.99 264.765 888.05 273.615C896.89 282.345 908.19 290.025 908.4 301.855C908.94 327.115 902.12 396.815 902.12 400.225C902.12 400.225 915.97 400.755 918.64 401.185L903.82 477.065L835.51 494.015L811.74 401.075C818.77 400.115 832.63 399.055 832.63 399.055Z" fill="#F4B29A"/>
<path opacity="0.2" d="M850.53 371.665C842.97 375.285 836.36 376.775 834.44 377.095C834.12 377.205 833.8 377.415 833.8 377.845L833.16 389.775C833.16 390.525 834.01 390.845 834.44 390.315L851.39 372.835C852.03 372.195 851.28 371.235 850.53 371.665Z" fill="#3B2F2B"/>
<path d="M685.76 867.035L587.93 817.905L585.05 829.195C582.6 841.885 580.36 852.115 578.97 855.415L584.94 919.785H662.74L673.19 914.565C677.77 902.205 681.61 890.055 684.91 878.015V867.995L685.76 867.035Z" fill="#F4B29A"/>
<path d="M500 918.405L575.88 956.235C581.43 952.615 587.39 949.625 593.15 947.495L509.38 905.935C509.06 906.145 508.74 906.145 508.42 906.355C505.22 909.345 502.56 913.285 500 918.405Z" fill="#FFC0E5"/>
<path d="M605.41 969.775L640.79 987.355C644.31 980.755 647.61 974.465 650.7 967.965C654.32 960.285 657.84 952.825 661.04 945.475C650.59 941.635 632.05 938.335 612.01 941.635L605.41 969.775Z" fill="#FFC0E5"/>
<path d="M590.8 907.955L603.91 889.095C609.88 880.565 606.68 868.735 597.31 864.155L578.97 855.305C578.87 855.525 578.87 855.625 578.87 855.625C577.8 857.865 577.06 859.995 575.99 861.915C558.51 896.445 533.47 889.525 514.6 901.455C512.68 902.625 510.23 904.865 508.42 906.355L592.3 947.925C618.94 937.795 646.86 941.635 660.51 946.645C661.89 943.665 663.06 940.465 664.24 937.265C667.33 929.595 670.31 922.135 673.08 914.565C629.49 894.635 590.8 907.955 590.8 907.955Z" fill="#B3B0F8"/>
<path d="M834.12 912.965L837.21 906.465C835.83 893.895 834.12 881.745 831.88 870.015L826.13 853.815L718.38 855.525L720.72 870.015C723.49 879.395 725.73 887.495 726.48 894.105L755.04 950.485L834.12 912.965Z" fill="#F4B29A"/>
<path d="M839.98 940.895C826.87 942.805 811.63 948.245 796.82 961.035L800.34 988.315H840.62C840.83 980.965 840.83 973.825 840.83 966.685C840.73 958.155 840.3 949.095 839.98 940.895Z" fill="#FFC0E5"/>
<path d="M684.49 988.315H775.18C778.7 982.775 782.11 977.875 785.95 973.295H686.83C685.23 977.655 684.49 982.565 684.49 988.315Z" fill="#FFC0E5"/>
<path d="M839.98 941.745C839.77 938.435 839.66 935.135 839.45 931.935C838.92 923.195 838.06 914.675 837.21 906.465C790.64 908.595 762.61 936.305 762.61 936.305L766.66 911.155C768.04 902.095 761.22 894.105 752.16 894.105H726.48C726.69 895.165 726.69 896.235 726.8 897.085C727.01 899.535 727.01 901.775 727.01 903.905C726.8 942.595 701.32 947.495 689.81 966.685C688.64 968.815 687.58 971.055 686.72 973.505H785.73C803.43 951.865 823.46 944.195 839.98 941.745Z" fill="#B3B0F8"/>
<path d="M913.09 629.475L905.63 595.155L782.32 601.765L774.86 605.595C774.86 605.595 675.32 613.595 637.8 651.955C608.28 682.335 604.87 724.115 593.47 784.115C590.48 800.205 587.5 816.405 584.94 829.415L684.91 878.225C702.39 812.675 703.88 780.065 703.78 737.645L824.95 737.965C882.4 738.395 925.14 685.425 913.09 629.475Z" fill="#FFC0E5"/>
<path opacity="0.2" d="M703.78 737.865L682.46 684.675C648.25 712.065 655.18 771.115 691.84 850.615C703.03 802.655 703.99 773.675 703.78 737.865Z" fill="#FD9BD5"/>
<path d="M963.08 649.505C955.41 616.365 943.15 595.475 943.15 595.475L874.62 599.845C874.62 599.845 732.45 615.725 688.86 667.515C653.26 709.725 703.14 812.465 720.72 870.015H831.88C822.29 820.135 805.77 776.335 786.8 738.715H877.18C946.56 738.605 973.42 695.125 963.08 649.505Z" fill="#FFC0E5"/>
<path opacity="0.2" d="M943.15 595.365L874.62 599.735L863 611.565C918.53 644.075 962.97 649.405 962.97 649.405C955.3 616.365 943.15 595.365 943.15 595.365Z" fill="#FD9BD5"/>
<path opacity="0.2" d="M768.68 704.715L786.8 738.715C786.8 738.715 888.69 738.715 858.85 738.715C819.63 738.715 782.75 700.555 768.68 704.715Z" fill="#FD9BD5"/>
<path d="M746.19 630.855C722.64 640.235 701.75 652.275 688.86 667.515C663.92 697.145 681.18 756.615 699.62 809.485" stroke="#FD9BD5" stroke-width="4" stroke-linecap="round" stroke-linejoin="round"/>
<path d="M719.98 931.295L737.24 938.435" stroke="#636363" stroke-width="4" stroke-linecap="round"/>
<path d="M709.74 943.345L724.35 954.315" stroke="#636363" stroke-width="4" stroke-linecap="round"/>
<path d="M556.59 883.335L568.42 897.835" stroke="#636363" stroke-width="4" stroke-linecap="round"/>
<path d="M542.84 890.475L550.52 907.105" stroke="#636363" stroke-width="4" stroke-linecap="round"/>
<path d="M849.47 371.665C845.1 374.325 838.7 376.675 833.8 377.415" stroke="#3B2F2B" stroke-width="4" stroke-linecap="round" stroke-linejoin="round"/>
<path d="M866.31 342.135L876.32 335.425" stroke="#3B2F2B" stroke-width="4" stroke-linecap="round" stroke-linejoin="round"/>
<path d="M828.47 340.755C826.77 344.595 822.4 346.825 818.13 345.975" stroke="#3B2F2B" stroke-width="4" stroke-linecap="round" stroke-linejoin="round"/>
<path d="M818.77 332.445C815.26 330.845 816.11 328.285 817.6 324.765" stroke="#3B2F2B" stroke-width="4" stroke-linecap="round" stroke-linejoin="round"/>
<path d="M833.91 324.125C835.56 324.125 836.89 322.795 836.89 321.145C836.89 319.495 835.56 318.155 833.91 318.155C832.26 318.155 830.92 319.495 830.92 321.145C830.92 322.795 832.26 324.125 833.91 324.125Z" fill="#231F20"/>
<path d="M807.9 322.105C809.55 322.105 810.89 320.765 810.89 319.115C810.89 317.465 809.55 316.135 807.9 316.135C806.25 316.135 804.92 317.465 804.92 319.115C804.92 320.765 806.25 322.105 807.9 322.105Z" fill="#231F20"/>
<path d="M918.77 251.665C931.97 238.485 931.97 217.085 918.77 203.885C905.58 190.705 884.19 190.705 871 203.885C857.8 217.085 857.8 238.485 871 251.665C884.19 264.865 905.58 264.865 918.77 251.665Z" fill="#2B1403"/>
<path d="M664.24 390.525C641.54 349.705 622.46 326.575 615.32 329.985C607.75 333.505 615.21 352.905 615.21 352.905C607.11 350.555 595.6 347.365 584.84 347.365H584.73C578.87 347.465 575.46 348.645 573.11 350.135C563.52 357.065 570.77 365.695 570.77 365.695C570.77 365.695 558.51 367.715 565.44 381.145C565.44 381.145 555.53 388.285 564.8 396.175C564.8 396.175 557.77 400.755 564.69 409.385C571.62 418.025 582.6 421.855 587.29 419.945C588.25 419.405 588.99 418.665 589.53 417.805C594.32 420.685 600.18 423.355 607 425.055L615.42 431.875L665.41 397.875L664.24 390.525Z" fill="#F4B29A"/>
<path d="M615.21 352.905L619.15 364.095C619.15 364.095 614.25 381.995 617.88 400.755" stroke="#3B2F2B" stroke-width="4" stroke-linecap="round" stroke-linejoin="round"/>
<path d="M952.31 413.125C952.31 413.015 952.31 413.015 952.31 413.125C942.94 405.875 927.38 400.975 916.93 400.975L845.95 481.005L812.8 400.865C804.39 401.925 794.47 403.635 786.8 406.405C753.33 420.685 703.78 464.175 703.78 464.175C691.73 439.975 677.77 413.755 664.34 390.635L607 425.165C607 425.165 632.8 552.735 701.43 552.735C743.85 552.735 785.52 517.245 785.52 517.245L793.83 568.615L775.5 605.495H915.23V605.705C920.87 605.705 927.59 605.595 934.73 605.495L949.33 605.065C972.03 604.215 996.97 601.975 1012.53 595.795C1083.4 562.225 985.35 435.715 952.31 413.125ZM933.88 539.305C935.16 529.605 936.54 519.375 938.03 508.935L957 535.575C948.8 537.065 941.34 538.245 933.88 539.305Z" fill="#FFC930"/>
<path d="M793.09 569.365L888.58 569.145" stroke="#3D351E" stroke-width="4" stroke-linecap="round"/>
<path d="M845.95 481.005L842.54 567.235" stroke="#3D351E" stroke-width="4" stroke-linecap="round"/>
<path d="M780.83 490.925L785.52 517.245" stroke="#3D351E" stroke-width="4" stroke-linecap="round"/>
<path opacity="0.2" d="M923.65 488.785L904.46 545.385L928.33 540.475L933.88 539.305C936.11 517.885 937.71 508.405 937.71 508.405L923.65 488.785Z" fill="#2C2510"/>
<path opacity="0.2" d="M762.93 532.915C775.4 525.555 783.82 518.635 785.31 517.455C785.41 517.355 785.52 517.135 785.52 517.035L781.79 496.465C781.68 496.035 781.04 495.935 780.83 496.355L762.29 532.385C761.97 532.695 762.5 533.125 762.93 532.915Z" fill="#2C2510"/>
<path d="M703.78 464.065V484.315" stroke="#3D351E" stroke-width="4" stroke-linecap="round"/>
<path d="M590.59 414.395C590.59 412.585 590.06 410.775 588.89 408.965C588.89 408.965 594.43 409.925 596.77 405.025C599.65 399.055 594.53 393.505 594.53 393.505C594.53 393.505 601.46 394.785 603.59 389.035C605.3 382.855 600.08 377.845 600.08 377.845C600.08 377.845 605.73 374.645 601.46 365.905C597.84 358.875 584.73 355.145 584.73 355.145" stroke="#3B2F2B" stroke-width="4" stroke-linecap="round"/>
<path d="M564.69 396.385C572.47 401.605 581 405.875 589.74 409.285" stroke="#3B2F2B" stroke-width="4" stroke-linecap="round"/>
<path d="M565.44 381.045C576.52 387.965 581.75 389.995 594.53 393.505" stroke="#3B2F2B" stroke-width="4" stroke-linecap="round"/>
<path d="M570.77 365.695C581.32 371.985 588.14 375.395 600.08 377.945" stroke="#3B2F2B" stroke-width="4" stroke-linecap="round"/>
<path d="M786.8 738.605L771.56 709.935" stroke="#FD9BD5" stroke-width="4" stroke-linecap="round" stroke-linejoin="round"/>
<path d="M904.46 545.385C876.86 552.525 849.36 563.395 839.56 569.255C830.5 574.265 802.04 591.425 803.21 598.245C805.66 607.945 838.38 588.225 838.38 588.225C838.38 588.225 811.63 610.925 813.12 621.265C813.55 629.255 823.89 627.445 823.89 627.445C826.02 639.275 839.45 633.735 839.45 633.735C852.56 649.935 885.6 611.785 885.6 611.785C895.19 611.245 909.79 609.225 915.97 604.955L906.49 556.045L904.46 545.385Z" fill="#F4B29A"/>
<path d="M839.45 633.735L871.53 604.315" stroke="#3B2F2B" stroke-width="4" stroke-linecap="round"/>
<path d="M823.89 627.445L859.59 591.535" stroke="#3B2F2B" stroke-width="4" stroke-linecap="round"/>
<path d="M838.38 588.225L846.8 581.195" stroke="#3B2F2B" stroke-width="4" stroke-linecap="round"/>
<path d="M937.71 508.405L923.65 488.785" stroke="#3D351E" stroke-width="4" stroke-linecap="round"/>
<path d="M956.9 535.795L978.43 542.185" stroke="#3D351E" stroke-width="4" stroke-linecap="round"/>
<path d="M971.71 417.385C971.92 358.445 922.37 354.285 914.05 316.135C908.62 286.935 904.35 273.825 895.51 265.195C886.45 256.345 875.26 251.225 862.15 250.695C829.43 249.315 809.29 260.285 800.34 278.195C795.54 287.785 793.73 301.425 793.94 305.375L855.86 306.545L859.91 323.275C859.91 323.275 885.6 308.675 893.38 323.595C904.35 345.235 869.5 361.645 869.5 361.645L876.11 417.275L971.71 417.385Z" fill="#2B1403"/>
<path d="M891.25 261.355C885.17 256.555 878.35 253.255 870.78 251.655" stroke="#070300" stroke-width="4" stroke-linecap="round" stroke-linejoin="round"/>
<path d="M904.46 545.385L957 535.685" stroke="#3D351E" stroke-width="4" stroke-linecap="round"/>
<path d="M812.72 649.4H710.24L676.04 541.56C673.7 534.15 666.98 529.18 659.19 529.18H516.17C506.43 529.18 498.44 537.08 498.44 546.82C498.44 548.67 498.74 550.42 499.32 552.18L530.01 649.4L531.08 652.71C533.12 658.85 538.78 663.04 545.3 663.04L802.69 663.14C803.76 663.14 804.83 662.94 805.81 662.65C811.36 660.9 814.48 654.96 812.72 649.4Z" fill="#E0E1FE"/>
<path d="M602.68 619.88C602.2 619.88 601.81 619.69 601.51 619.4L601.42 619.3C593.23 612.38 566.64 589.39 570.53 584.13C571.22 583.25 572.29 582.77 573.75 582.77C580.76 582.77 595.18 593.97 596.4 594.59C596.94 595.43 604.83 582.77 612.23 582.77C613.59 582.77 614.96 583.25 616.13 584.13C622.75 589.39 609.87 614.78 604.14 619.3C603.66 619.69 603.17 619.88 602.68 619.88Z" fill="#FFA0DC"/>
<path d="M594.89 582.15C593.14 582.15 590.7 578.45 589.14 573.58C587.49 568.42 587.58 563.74 589.34 563.16C589.43 563.16 589.53 563.06 589.63 563.06C591.38 563.06 593.82 566.76 595.38 571.63C597.03 576.79 596.94 581.47 595.18 582.05C595.08 582.15 594.99 582.15 594.89 582.15Z" fill="#FFA0DC"/>
<path d="M1059.86 659.34L1099.92 658.92C1099.94 658.92 1099.5 657.67 1099.5 657.65C1101.6 641.78 1101.03 630.86 1107.04 614.86C1109.01 599.94 1109.62 595.42 1111.58 580.5C1111.58 580.5 1111.95 571.62 1111.93 571.59C1111.93 571.57 1111.7 571.9 1111.68 571.9L1045.86 580.54C1045.9 580.85 1045.86 580.52 1045.86 580.54C1047.84 595.44 1048.41 599.88 1050.38 614.8C1052.48 630.69 1058.43 645.38 1060.53 661.28C1060.55 661.32 1059.82 659.32 1059.86 659.34Z" fill="#B3B0F8"/>
<path d="M1050.41 614.72C1052.57 616.63 1054.03 619.36 1055.34 621.77C1058.58 627.7 1059.76 628.12 1061.35 628.12C1062.94 628.12 1064.12 627.7 1067.36 621.77C1069.68 617.53 1072.58 612.23 1078.73 612.23C1084.89 612.23 1087.78 617.53 1090.1 621.77C1093.34 627.7 1094.52 628.12 1096.11 628.12C1097.7 628.12 1098.89 627.7 1102.13 621.77C1103.43 619.36 1104.9 616.65 1107.06 614.72L1104.49 634.24L1101.68 655.43L1078.73 658.47L1055.78 655.43L1052.67 631.79L1050.41 614.72Z" fill="#FFC8D8"/>
<path d="M1100.74 662.54H1056.72L1055.78 655.41H1101.68L1100.74 662.54Z" fill="#FFA0DC"/>
<path opacity="0.2" d="M1066.99 590.97L1072.64 662.48C1072.64 662.52 1072.62 662.54 1072.58 662.54H1056.78C1056.76 662.54 1056.72 662.52 1056.72 662.5L1045.23 575.59C1045.23 575.55 1045.27 575.51 1045.31 575.53L1066.97 590.93C1066.99 590.95 1066.99 590.95 1066.99 590.97Z" fill="#4E4E4E"/>
<path d="M1044.62 570.03C1044.58 570.03 1044.54 570.09 1044.58 570.13C1045.6 571.51 1058.15 587.96 1078.75 587.96C1099.35 587.96 1111.91 571.49 1112.93 570.13C1112.95 570.09 1112.93 570.03 1112.89 570.03H1044.62Z" fill="#FFA0DC"/>
<path d="M1076.1 544.65L1081.65 576.95H1075.25L1069.89 545.71L1076.1 544.65Z" fill="#B3B0F8"/>
<path opacity="0.2" d="M1067.93 587.71L1081.52 577.06C1081.56 577.02 1081.54 576.95 1081.48 576.95H1075.27C1075.25 576.95 1075.25 576.95 1075.23 576.97L1061.63 587.63C1061.59 587.67 1061.61 587.73 1061.67 587.73H1067.89C1067.91 587.73 1067.91 587.73 1067.93 587.71Z" fill="#B53F89"/>
<path opacity="0.2" d="M1072.21 545.71L1077.57 576.95H1075.25L1069.89 545.71H1072.21Z" fill="#8B88CA"/>
<path d="M1072.96 548.22C1071.22 548.22 1069.81 546.81 1069.81 545.06C1069.81 543.32 1071.22 541.9 1072.96 541.9C1074.71 541.9 1076.12 543.32 1076.12 545.06C1076.12 546.81 1074.71 548.22 1072.96 548.22Z" fill="#4E4E4E"/>
<path d="M1078.73 587.96C1098.97 587.96 1111.5 571.9 1112.91 570.03C1112.95 569.98 1112.97 570.03 1112.97 570.09L1111.6 580.52C1111.6 580.54 1111.6 580.54 1111.58 580.56C1105.1 586.51 1093.87 594.07 1078.75 594.07C1063.63 594.07 1052.4 586.51 1045.92 580.56C1045.92 580.56 1045.9 580.54 1045.9 580.52L1044.56 570.25C1044.56 570.19 1044.62 570.17 1044.66 570.21C1046.02 572.08 1058.5 587.96 1078.73 587.96Z" fill="white"/>
<path opacity="0.2" d="M1055.34 621.77C1058.58 627.7 1059.76 628.12 1061.35 628.12C1062.94 628.12 1064.12 627.7 1067.36 621.77C1067.91 620.75 1068.5 619.67 1069.17 618.61L1072.09 655.43H1055.78L1052.67 631.79L1050.41 614.72C1052.57 616.63 1054.03 619.36 1055.34 621.77Z" fill="#FE014A"/>
<path opacity="0.2" d="M1055.78 655.41H1072.07L1072.64 662.54H1056.72L1055.78 655.41Z" fill="#B53F89"/>
<path d="M1044.6 570.05C1045.7 571.51 1053.56 581.68 1066.59 585.98L1067.09 592.52C1057.74 590 1050.57 584.84 1045.86 580.54L1044.5 570.11C1044.5 570.05 1044.58 569.98 1044.6 570.05Z" fill="white"/>
<path d="M1078.85 562.38H1072.94" stroke="#4E4E4E" stroke-width="4" stroke-linecap="round" stroke-linejoin="round"/>
<path d="M1078.45 559.12H1072.54" stroke="#4E4E4E" stroke-width="4" stroke-linecap="round" stroke-linejoin="round"/>
<path d="M1077.83 555.86H1071.92" stroke="#4E4E4E" stroke-width="4" stroke-linecap="round" stroke-linejoin="round"/>
<path d="M1078.77 588.06V593.77" stroke="white" stroke-width="4" stroke-linecap="round" stroke-linejoin="round"/>
<path d="M1072.66 587.65V593.36" stroke="white" stroke-width="4" stroke-linecap="round" stroke-linejoin="round"/>
<path d="M1066.95 586.23V591.93" stroke="white" stroke-width="4" stroke-linecap="round" stroke-linejoin="round"/>
<path d="M1061.65 583.98V590.3" stroke="white" stroke-width="4" stroke-linecap="round" stroke-linejoin="round"/>
<path d="M1056.56 581.13V588.06" stroke="white" stroke-width="4" stroke-linecap="round" stroke-linejoin="round"/>
<path d="M1052.08 577.87V585.21" stroke="white" stroke-width="4" stroke-linecap="round" stroke-linejoin="round"/>
<path d="M1048.2 574.41V582.35" stroke="white" stroke-width="4" stroke-linecap="round" stroke-linejoin="round"/>
<path d="M1084.89 587.65V593.36" stroke="white" stroke-width="4" stroke-linecap="round" stroke-linejoin="round"/>
<path d="M1090.59 586.23V591.93" stroke="white" stroke-width="4" stroke-linecap="round" stroke-linejoin="round"/>
<path d="M1095.89 584.19V590.3" stroke="white" stroke-width="4" stroke-linecap="round" stroke-linejoin="round"/>
<path d="M1100.98 581.13V588.06" stroke="white" stroke-width="4" stroke-linecap="round" stroke-linejoin="round"/>
<path d="M1105.47 578.08V585.21" stroke="white" stroke-width="4" stroke-linecap="round" stroke-linejoin="round"/>
<path d="M1109.34 574.61V582.35" stroke="white" stroke-width="4" stroke-linecap="round" stroke-linejoin="round"/>
<path d="M1085.11 577.26H1072.47" stroke="#B53F89" stroke-width="4" stroke-linecap="round" stroke-linejoin="round"/>
<path d="M1101.68 655.51H1056.03" stroke="#B53F89" stroke-width="4" stroke-linecap="round" stroke-linejoin="round"/>
<path d="M452.18 1046.05V680.63L473.72 680.55V1046.05H452.18Z" fill="#3C2C5B"/>
<path d="M1104.4 1046.05V680.63L1125.94 680.55V1046.05H1104.4Z" fill="#3C2C5B"/>
<path opacity="0.2" d="M1104.4 717.49V680.63L1125.94 680.55V707.86L1104.4 717.49Z" fill="black"/>
<path opacity="0.2" d="M452.18 717.49V680.63L473.72 680.55V707.86L452.18 717.49Z" fill="black"/>
<path d="M1125.94 685.62H1104.4" stroke="black" stroke-width="4" stroke-linecap="round" stroke-linejoin="round"/>
<path d="M473.72 685.62H452.18" stroke="black" stroke-width="4" stroke-linecap="round" stroke-linejoin="round"/>
<path d="M411.65 684.14V662.16H1166.47L1166.56 684.14H411.65Z" fill="#3C2C5B"/>
<path d="M491.82 989.13C491.53 989.13 491.34 989.13 491.05 989.13C483.33 988.74 477.34 982.08 477.73 974.26C478.02 969.05 481.11 964.51 485.74 962.29C503.98 953.61 502.82 947.43 499.45 928.89C496.65 913.74 492.79 892.99 506.2 871.17C508.81 867.02 513.25 864.51 518.17 864.51C520.78 864.51 523.29 865.28 525.51 866.63C532.17 870.69 534.2 879.38 530.14 886.04C522.42 898.58 524.54 910.26 527.05 923.78C530.63 943.18 535.64 969.73 497.81 987.78C495.97 988.65 493.94 989.13 491.82 989.13Z" fill="#9E76DD"/>
<path opacity="0.2" d="M510.06 964.51C504.56 962.49 499.35 960.07 494.43 957.27C492.21 958.91 489.31 960.56 485.74 962.29C481.11 964.51 478.02 969.15 477.73 974.26C477.34 981.99 483.33 988.65 491.05 989.13C491.34 989.13 491.53 989.13 491.82 989.13C493.94 989.13 495.97 988.65 497.9 987.78C510.06 981.99 517.88 975.32 522.61 968.18C518.37 967.31 514.22 966.06 510.06 964.51Z" fill="#4C386D"/>
<path d="M240.75 1047.24C240.07 1045.4 239.69 1043.47 239.69 1041.54C239.69 1033.15 246.54 1026.29 254.94 1026.29H321.64L363.34 1046.85L363.24 1047.24H240.75Z" fill="#9E76DD"/>
<path d="M305.62 1047.24C295.09 1047.24 285.06 1042.12 278.88 1033.63L276.95 1030.93C274.15 1027.06 273.86 1021.85 276.37 1017.8L289.69 995.5C293.26 989.42 299.05 985.07 305.81 983.14L313.63 980.92L314.21 958.91C314.21 957.76 314.79 956.6 315.56 955.83C316.33 955.05 317.39 954.67 318.55 954.67C319.71 954.67 320.96 955.15 321.74 956.02C327.05 961.81 335.44 970.79 346.35 982.66C348.67 985.17 351.27 986.43 354.36 986.43C361.89 986.43 371.35 979.19 382.36 970.79C399.15 957.95 420.1 942.02 445.39 942.02C452.53 942.02 459.77 943.37 466.92 945.88C483.91 952.06 495.87 962.58 502.25 977.16C515.86 1007.95 500.41 1046.76 500.22 1047.14L500.12 1047.24H305.62Z" fill="#FFA0DC"/>
<path d="M279.94 1034.98C279.55 1034.5 279.26 1034.11 278.88 1033.63L276.95 1030.93C274.15 1027.06 273.86 1021.85 276.37 1017.8L278.88 1013.65C278.88 1013.65 279.26 1013.65 279.46 1013.65C284.57 1013.65 288.63 1016.25 289.59 1020.11C290.65 1024.36 285.73 1032.18 280.23 1035.08L280.13 1035.17L279.94 1034.98Z" fill="#0F1C29"/>
<path d="M364.21 1047.05C361.22 1039.32 364.98 1030.54 372.8 1027.55C374.54 1026.87 376.37 1026.49 378.3 1026.49H404.75C401.37 1001.1 419.23 977.83 444.62 974.46C446.65 974.17 448.67 974.07 450.7 974.07H451.95" stroke="#6C3056" stroke-width="4" stroke-linecap="round" stroke-linejoin="round"/>
<path d="M461.03 1024.84C457.65 1024.84 454.46 1023.88 451.76 1022.04C447.8 1019.34 445.29 1014.9 444.81 1009.69C444.33 1004.48 445.78 999.07 448.96 994.53C453.21 988.45 459.87 984.69 466.53 984.69C469.91 984.69 473.09 985.65 475.8 987.49C479.75 990.19 482.26 994.63 482.75 999.84C483.23 1005.06 481.78 1010.46 478.6 1015C474.35 1021.08 467.59 1024.84 461.03 1024.84Z" fill="#9E76DD"/>
<path d="M422.51 970.98C417.49 970.98 412.86 969.73 408.61 967.31C404.94 965.19 401.76 962.2 399.44 958.63L399.35 958.43L399.54 958.34C410.06 951.39 426.28 942.02 445.39 942.02C449.54 942.02 453.69 942.41 457.75 943.28H457.94L457.84 943.47C456.97 945.98 455.82 948.39 454.46 950.71C447.32 963.26 435.06 970.98 422.51 970.98Z" fill="#9E76DD"/>
<path d="M295.58 1012.39C297.41 1014.71 304.07 1015.96 307.74 1014.71" stroke="#6C3056" stroke-width="4" stroke-linecap="round" stroke-linejoin="round"/>
<path d="M1237.36 910.21C1237.36 910.21 1269.85 761.12 1305.22 748.69" stroke="#B4E2BA" stroke-width="4" stroke-linecap="round"/>
<path d="M1246.92 788.83C1226.84 786.92 1228.76 911.17 1228.76 911.17" stroke="#B4E2BA" stroke-width="4" stroke-linecap="round"/>
<path d="M1223.98 912.13C1223.98 898.75 1217.29 818.46 1202.95 808.9" stroke="#B4E2BA" stroke-width="4" stroke-linecap="round"/>
<path d="M1332.74 869.98C1334.46 868.73 1335.42 865.96 1335.32 862.04C1335.13 842.55 1314.2 799.92 1285.72 780.9C1275.87 774.4 1267.18 771.06 1259.91 771.06C1246.92 771.06 1242.14 781.57 1241.28 783.67C1264.03 799.92 1296.39 827.31 1331.74 869.72L1332.74 869.98Z" fill="#69BC85"/>
<path d="M1325.67 871.51C1328.73 871.51 1331.02 871.03 1332.45 870.17L1332.74 869.98C1300.88 825.91 1265.27 794.25 1241.28 783.67L1241.09 784.25C1239.75 784.06 1238.41 783.86 1237.17 783.86C1230.19 783.86 1224.93 787.02 1222.83 792.47C1221.4 796.19 1218.43 809.86 1241.18 830.98C1268.13 856.12 1308.56 871.51 1325.67 871.51Z" fill="#B4E2BA"/>
<path d="M1160.23 887.28C1170.3 860.44 1190.51 821.94 1201.61 806.52H1201.52C1201.52 806.42 1197.5 796.96 1187.47 796.96C1185.56 796.96 1183.55 797.34 1181.45 797.91C1173.32 800.49 1165.1 811.58 1159.37 827.45C1152.77 846.08 1149.62 872.27 1158.51 885.84C1158.89 886.51 1159.46 886.99 1160.23 887.28Z" fill="#69BC85"/>
<path d="M1162.52 887.75C1177.72 887.75 1218.82 846.85 1218.82 821.81C1218.82 808.04 1210.69 806.04 1205.82 806.04C1203.52 806.04 1201.8 806.52 1201.61 806.52C1190.05 818.01 1166.97 858.67 1160.23 887.28C1160.9 887.56 1161.66 887.75 1162.52 887.75Z" fill="#B4E2BA"/>
<path d="M1383.97 773.26C1384.16 772.87 1384.16 772.49 1384.16 772.11C1382.25 764.37 1345.93 733.88 1322.04 730.06C1320.03 729.77 1318.12 729.58 1316.4 729.58C1311.14 729.58 1307.13 731.11 1304.45 733.97C1300.44 738.47 1300.34 744.49 1301.11 746.66C1317.28 749.44 1347.38 756.67 1383.97 773.26Z" fill="#69BC85"/>
<path d="M1344.59 780.61C1364.66 780.61 1381.96 777.36 1383.97 773.26C1350.28 752.91 1316.55 747.17 1301.48 746.28V746.27C1300.34 746.21 1299.67 746.11 1299 746.11C1292.03 746.11 1285.24 751.18 1284.19 757.2C1283.04 763.79 1288.78 769.91 1299.96 774.02C1311.62 778.32 1327.39 780.61 1344.59 780.61Z" fill="#B4E2BA"/>
<path d="M1311.43 1046.41L1282.76 906.87H1181.45L1152.77 1046.41H1311.43Z" fill="#FFA0DC"/>
<path opacity="0.3" d="M1202.95 1046.41L1209.64 906.87H1181.45L1152.77 1046.41H1202.95Z" fill="#75626E"/>
<path d="M1170.84 961.92C1186.7 963.64 1217.96 970.14 1243.09 995.28C1263.93 1016.11 1264.21 1034.46 1265.07 1045.45" stroke="white" stroke-width="4" stroke-linecap="round" stroke-linejoin="round"/>
<path d="M1255.71 906.77C1259.15 915.95 1263.07 934.01 1246.44 945.1C1227.51 957.71 1192.92 950.16 1175.04 938.03" stroke="white" stroke-width="4" stroke-linecap="round" stroke-linejoin="round"/>
<path d="M1155.74 1033.79C1163.29 1033.03 1175.23 1029.11 1179.06 1011.52C1181.92 998.14 1173.9 988.2 1166.82 982.85" stroke="white" stroke-width="4" stroke-linecap="round" stroke-linejoin="round"/>
<path d="M1298.62 983.62C1287.15 975.78 1267.66 973.58 1247.87 980.94C1222.07 990.5 1205.82 1020.13 1196.93 1045.64" stroke="white" stroke-width="4" stroke-linecap="round" stroke-linejoin="round"/>
<path d="M1388.03 153H1085V507.55H1388.03V153Z" fill="#EFDCD7"/>
<path d="M1143.08 218.66H1205.71C1210.96 218.66 1215.3 223.01 1215.3 228.26C1215.3 233.51 1210.96 237.85 1205.71 237.85H1143.08C1137.83 237.85 1133.48 233.51 1133.48 228.26C1133.48 223.01 1137.83 218.66 1143.08 218.66Z" fill="#FFC930"/>
<path d="M1244.09 218.66H1266.31C1271.56 218.66 1275.91 223.01 1275.91 228.26C1275.91 233.51 1271.56 237.85 1266.31 237.85H1244.09C1238.84 237.85 1234.49 233.51 1234.49 228.26C1234.49 223.01 1238.84 218.66 1244.09 218.66Z" fill="#B3B0F8"/>
<path d="M1303.69 218.66H1325.91C1331.16 218.66 1335.5 223.01 1335.5 228.26C1335.5 233.51 1331.16 237.85 1325.91 237.85H1303.69C1298.43 237.85 1294.09 233.51 1294.09 228.26C1294.09 223.01 1298.43 218.66 1303.69 218.66Z" fill="#FFC0E5"/>
<path d="M1143.08 371.69H1205.71C1210.96 371.69 1215.3 376.04 1215.3 381.29C1215.3 386.54 1210.96 390.89 1205.71 390.89H1143.08C1137.83 390.89 1133.48 386.54 1133.48 381.29C1133.48 376.04 1137.83 371.69 1143.08 371.69Z" fill="#FFC0E5"/>
<path d="M1244.09 371.69H1325.91C1331.16 371.69 1335.5 376.04 1335.5 381.29C1335.5 386.54 1331.16 390.89 1325.91 390.89H1244.09C1238.84 390.89 1234.49 386.54 1234.49 381.29C1234.49 376.04 1238.84 371.69 1244.09 371.69Z" fill="white"/>
<path d="M1143.08 320.68H1240.05C1245.3 320.68 1249.65 325.03 1249.65 330.28C1249.65 335.53 1245.3 339.88 1240.05 339.88H1143.08C1137.83 339.88 1133.48 335.53 1133.48 330.28C1133.48 325.03 1137.83 320.68 1143.08 320.68Z" fill="#B3B0F8"/>
<path d="M1203.68 269.67H1266.31C1271.56 269.67 1275.91 274.02 1275.91 279.27C1275.91 284.52 1271.56 288.87 1266.31 288.87H1203.68C1198.43 288.87 1194.09 284.52 1194.09 279.27C1194.09 274.02 1198.43 269.67 1203.68 269.67Z" fill="white"/>
<path d="M1143.08 269.67H1165.3C1170.55 269.67 1174.9 274.02 1174.9 279.27C1174.9 284.52 1170.55 288.87 1165.3 288.87H1143.08C1137.83 288.87 1133.48 284.52 1133.48 279.27C1133.48 274.02 1137.83 269.67 1143.08 269.67Z" fill="white"/>
<path d="M1303.69 269.67H1325.91C1331.16 269.67 1335.5 274.02 1335.5 279.27C1335.5 284.52 1331.16 288.87 1325.91 288.87H1303.69C1298.43 288.87 1294.09 284.52 1294.09 279.27C1294.09 274.02 1298.43 269.67 1303.69 269.67Z" fill="white"/>
<path d="M1203.68 422.7H1325.91C1331.16 422.7 1335.5 427.05 1335.5 432.3C1335.5 437.55 1331.16 441.9 1325.91 441.9H1203.68C1198.43 441.9 1194.09 437.55 1194.09 432.3C1194.09 427.05 1198.43 422.7 1203.68 422.7Z" fill="#FFC930"/>
<path d="M1143.08 422.7H1165.3C1170.55 422.7 1174.9 427.05 1174.9 432.3C1174.9 437.55 1170.55 441.9 1165.3 441.9H1143.08C1137.83 441.9 1133.48 437.55 1133.48 432.3C1133.48 427.05 1137.83 422.7 1143.08 422.7Z" fill="#B3B0F8"/>
</g>
<defs>
<clipPath id="clip0_99_114">
<rect width="1600" height="1200" fill="white"/>
</clipPath>
</defs>
</svg>
