<svg width="66" height="44" viewBox="0 0 66 44" fill="none" xmlns="http://www.w3.org/2000/svg">
<path d="M25.6943 27.3242C27.0853 27.3242 27.1113 26.1932 27.4753 25.7252C27.4753 26.5312 27.7873 27.3242 29.0483 27.3242C29.6333 27.3242 30.1663 26.9862 30.1663 26.5312C30.1663 26.0632 29.8153 26.0242 29.8153 25.3352V20.4992C29.8153 20.0702 29.6333 19.8492 29.2173 19.8492C29.1003 19.8492 28.9443 19.8622 28.7753 19.9142L27.8523 20.1612C27.2803 20.3172 27.2153 20.6292 27.2153 20.7982C27.2153 21.1882 27.4753 21.4092 27.4753 21.9422V22.5662C27.2153 22.2282 26.7083 21.8642 25.9413 21.8642C24.2513 21.8642 23.4973 23.2292 23.4973 24.5942C23.4973 25.9592 24.1993 27.3242 25.6943 27.3242ZM26.8253 25.6732C26.2013 25.6732 25.8373 25.0102 25.8373 24.3082C25.8373 23.5542 26.2663 22.7742 27.0853 22.7742C27.2023 22.7742 27.3323 22.7872 27.4753 22.8262V25.4002C27.2543 25.6342 27.0203 25.6732 26.8253 25.6732ZM33.7424 27.3242C35.4584 27.3242 36.2644 26.5572 36.2644 26.1802C36.2644 26.0502 36.1994 25.9722 36.0824 25.9722C35.7964 25.9722 35.5104 26.3492 34.6524 26.3492C34.1194 26.3492 33.7294 26.1932 33.4434 25.9202C33.7944 25.1272 36.3684 25.3612 36.3684 23.5932C36.3684 22.4492 35.2244 21.8642 33.6774 21.8642C32.0004 21.8642 30.4924 22.4492 30.4924 24.5292C30.4924 26.1672 31.6364 27.3242 33.7424 27.3242ZM33.2874 25.7382C32.9624 25.3222 32.8324 24.6982 32.8324 24.0092C32.8324 22.6312 33.2874 22.0852 33.6904 22.0852C34.0414 22.0852 34.2884 22.4622 34.2884 23.1772C34.2884 24.6722 33.4824 25.0492 33.2874 25.7382ZM39.6668 27.2592C39.9528 27.2592 40.0828 27.1812 40.3688 26.6352L41.0578 25.3482C42.1628 23.2812 42.6308 22.8262 42.6308 22.3972C42.6308 22.0722 42.3578 21.9292 41.8508 21.9292C41.2398 21.9292 41.0318 22.0982 41.0318 22.4752C41.0318 22.8522 41.1618 23.2162 41.1618 23.7362C41.1618 24.1262 41.0968 24.5942 40.8238 25.2182L40.1868 24.0222C39.7968 23.2942 39.8228 22.7092 39.8228 22.3582C39.8228 21.9682 39.5368 21.9292 39.2248 21.9292H36.9888C36.6768 21.9292 36.4948 22.1112 36.4948 22.3582C36.4948 22.8262 37.1708 23.3462 37.7168 24.3602L38.9258 26.6352C39.2248 27.1942 39.3548 27.2592 39.6668 27.2592Z" fill="#B4E2BA"/>
<path d="M27.4753 25.7252H27.7753V24.8509L27.2385 25.541L27.4753 25.7252ZM28.7753 19.9142L28.8529 20.2042L28.8635 20.2009L28.7753 19.9142ZM27.8523 20.1612L27.7748 19.8714L27.7734 19.8718L27.8523 20.1612ZM27.4753 22.5662L27.2375 22.7491L27.7753 23.4483V22.5662H27.4753ZM27.4753 22.8262H27.7753V22.5971L27.5542 22.5368L27.4753 22.8262ZM27.4753 25.4002L27.6934 25.6062L27.7753 25.5195V25.4002H27.4753ZM25.6943 27.6242C26.0839 27.6242 26.3983 27.5446 26.6541 27.4023C26.9098 27.2601 27.0877 27.0658 27.2201 26.8658C27.3496 26.6701 27.4401 26.461 27.5138 26.293C27.5935 26.1112 27.6487 25.9909 27.7121 25.9094L27.2385 25.541C27.1199 25.6935 27.0353 25.8901 26.9643 26.052C26.8873 26.2277 26.8161 26.389 26.7198 26.5346C26.6262 26.6759 26.5141 26.7936 26.3624 26.878C26.2107 26.9624 26.0003 27.0242 25.6943 27.0242V27.6242ZM27.1753 25.7252C27.1753 26.1586 27.2577 26.6376 27.5533 27.0127C27.8597 27.4014 28.3509 27.6242 29.0483 27.6242V27.0242C28.4847 27.0242 28.1894 26.8505 28.0246 26.6413C27.8489 26.4183 27.7753 26.0978 27.7753 25.7252H27.1753ZM29.0483 27.6242C29.3949 27.6242 29.7349 27.5249 29.9962 27.3458C30.2571 27.1671 30.4663 26.8866 30.4663 26.5312H29.8663C29.8663 26.6309 29.809 26.7468 29.6571 26.8508C29.5057 26.9546 29.2867 27.0242 29.0483 27.0242V27.6242ZM30.4663 26.5312C30.4663 26.2047 30.3318 26.0089 30.2516 25.8678C30.1813 25.7441 30.1153 25.6133 30.1153 25.3352H29.5153C29.5153 25.7462 29.6248 25.9793 29.73 26.1643C29.8253 26.332 29.8663 26.3898 29.8663 26.5312H30.4663ZM30.1153 25.3352V20.4992H29.5153V25.3352H30.1153ZM30.1153 20.4992C30.1153 20.2498 30.0635 20.0005 29.8958 19.8132C29.722 19.6192 29.4765 19.5492 29.2173 19.5492V20.1492C29.3741 20.1492 29.4276 20.1898 29.4488 20.2135C29.4761 20.2439 29.5153 20.3196 29.5153 20.4992H30.1153ZM29.2173 19.5492C29.0788 19.5492 28.8917 19.5645 28.6871 19.6275L28.8635 20.2009C28.9969 20.1599 29.1218 20.1492 29.2173 20.1492V19.5492ZM28.6978 19.6244L27.7748 19.8714L27.9299 20.451L28.8529 20.204L28.6978 19.6244ZM27.7734 19.8718C27.4413 19.9624 27.2162 20.1097 27.0781 20.2964C26.9398 20.4834 26.9153 20.674 26.9153 20.7982H27.5153C27.5153 20.7535 27.5233 20.7035 27.5605 20.6533C27.5979 20.6027 27.6913 20.5161 27.9312 20.4506L27.7734 19.8718ZM26.9153 20.7982C26.9153 21.0594 27.0055 21.2674 27.065 21.4234C27.1258 21.583 27.1753 21.7307 27.1753 21.9422H27.7753C27.7753 21.6207 27.6949 21.3914 27.6257 21.2098C27.5551 21.0246 27.5153 20.927 27.5153 20.7982H26.9153ZM27.1753 21.9422V22.5662H27.7753V21.9422H27.1753ZM27.7131 22.3833C27.4029 21.9801 26.8118 21.5642 25.9413 21.5642V22.1642C26.6048 22.1642 27.0277 22.4764 27.2375 22.7491L27.7131 22.3833ZM25.9413 21.5642C25.0053 21.5642 24.3065 21.947 23.8491 22.5327C23.3991 23.1089 23.1973 23.8612 23.1973 24.5942H23.7973C23.7973 23.9622 23.9725 23.3495 24.322 22.902C24.6641 22.464 25.1873 22.1642 25.9413 22.1642V21.5642ZM23.1973 24.5942C23.1973 25.3228 23.3838 26.0702 23.7903 26.6444C24.2041 27.2289 24.8413 27.6242 25.6943 27.6242V27.0242C25.0523 27.0242 24.591 26.7371 24.28 26.2978C23.9618 25.8482 23.7973 25.2307 23.7973 24.5942H23.1973ZM26.8253 25.3732C26.6348 25.3732 26.4732 25.2769 26.3469 25.0876C26.2169 24.8925 26.1373 24.6121 26.1373 24.3082H25.5373C25.5373 24.7063 25.6397 25.1084 25.8477 25.4204C26.0594 25.738 26.3918 25.9732 26.8253 25.9732V25.3732ZM26.1373 24.3082C26.1373 23.9831 26.2307 23.6641 26.3971 23.4345C26.5579 23.2126 26.7843 23.0742 27.0853 23.0742V22.4742C26.5673 22.4742 26.1697 22.7259 25.9113 23.0824C25.6584 23.4313 25.5373 23.8793 25.5373 24.3082H26.1373ZM27.0853 23.0742C27.1793 23.0742 27.2824 23.0846 27.3964 23.1156L27.5542 22.5368C27.3822 22.4899 27.2253 22.4742 27.0853 22.4742V23.0742ZM27.1753 22.8262V25.4002H27.7753V22.8262H27.1753ZM27.2572 25.1942C27.1115 25.3485 26.9695 25.3732 26.8253 25.3732V25.9732C27.0711 25.9732 27.3971 25.9199 27.6934 25.6062L27.2572 25.1942ZM33.4434 25.9202L33.1691 25.7988L33.0837 25.9916L33.2363 26.1372L33.4434 25.9202ZM33.2874 25.7382L33.051 25.9229L33.4151 26.3889L33.5761 25.8199L33.2874 25.7382ZM33.7424 27.6242C34.6443 27.6242 35.328 27.4227 35.7963 27.1538C36.0297 27.0197 36.2141 26.8663 36.3437 26.7082C36.4676 26.557 36.5644 26.3724 36.5644 26.1802H35.9644C35.9644 26.1765 35.9605 26.2292 35.8796 26.3279C35.8045 26.4196 35.6802 26.5286 35.4975 26.6334C35.1339 26.8423 34.5565 27.0242 33.7424 27.0242V27.6242ZM36.5644 26.1802C36.5644 26.0689 36.5367 25.9383 36.4443 25.8314C36.3464 25.718 36.2115 25.6722 36.0824 25.6722V26.2722C36.0784 26.2722 36.0645 26.2715 36.0454 26.2636C36.0253 26.2553 36.0058 26.2416 35.9903 26.2236C35.9596 26.1881 35.9644 26.1615 35.9644 26.1802H36.5644ZM36.0824 25.6722C35.9468 25.6722 35.8284 25.7169 35.7383 25.7565C35.6921 25.7768 35.6441 25.8001 35.6002 25.8213C35.5545 25.8433 35.5096 25.8648 35.4612 25.8861C35.2763 25.9673 35.0315 26.0492 34.6524 26.0492V26.6492C35.1313 26.6492 35.4585 26.5426 35.7026 26.4354C35.7615 26.4095 35.8149 26.3839 35.8608 26.3617C35.9085 26.3387 35.9454 26.3208 35.9797 26.3058C36.0505 26.2747 36.0751 26.2722 36.0824 26.2722V25.6722ZM34.6524 26.0492C34.183 26.0492 33.8717 25.9143 33.6506 25.7032L33.2363 26.1372C33.5872 26.4722 34.0558 26.6492 34.6524 26.6492V26.0492ZM33.7178 26.0416C33.7519 25.9645 33.8678 25.8671 34.1607 25.7489C34.2962 25.6943 34.449 25.6427 34.6182 25.5862C34.7844 25.5307 34.9654 25.4708 35.1443 25.4027C35.4984 25.2679 35.8779 25.0892 36.1695 24.8066C36.4723 24.5133 36.6684 24.1197 36.6684 23.5932H36.0684C36.0684 23.9508 35.9428 24.1908 35.752 24.3757C35.55 24.5713 35.264 24.7151 34.9308 24.842C34.766 24.9047 34.5978 24.9604 34.4281 25.0171C34.2614 25.0727 34.0915 25.1299 33.9363 25.1925C33.648 25.3087 33.3104 25.4794 33.1691 25.7988L33.7178 26.0416ZM36.6684 23.5932C36.6684 22.9013 36.314 22.3783 35.758 22.0429C35.2154 21.7154 34.4823 21.5642 33.6774 21.5642V22.1642C34.4195 22.1642 35.032 22.3055 35.4481 22.5566C35.8509 22.7996 36.0684 23.1411 36.0684 23.5932H36.6684ZM33.6774 21.5642C32.8132 21.5642 31.9448 21.7133 31.2852 22.1701C30.6058 22.6406 30.1924 23.4062 30.1924 24.5292H30.7924C30.7924 23.5723 31.133 23.0053 31.6268 22.6633C32.1405 22.3076 32.8646 22.1642 33.6774 22.1642V21.5642ZM30.1924 24.5292C30.1924 25.4212 30.506 26.2055 31.1271 26.764C31.745 27.3198 32.6359 27.6242 33.7424 27.6242V27.0242C32.7429 27.0242 32.0089 26.7501 31.5283 26.3179C31.0508 25.8885 30.7924 25.2753 30.7924 24.5292H30.1924ZM33.5238 25.5535C33.26 25.2158 33.1324 24.6732 33.1324 24.0092H32.5324C32.5324 24.7233 32.6649 25.4286 33.051 25.9229L33.5238 25.5535ZM33.1324 24.0092C33.1324 23.3481 33.2424 22.9212 33.3752 22.6713C33.5086 22.4203 33.639 22.3852 33.6904 22.3852V21.7852C33.3388 21.7852 33.0402 22.0232 32.8454 22.3897C32.65 22.7573 32.5324 23.2923 32.5324 24.0092H33.1324ZM33.6904 22.3852C33.7382 22.3852 33.7979 22.403 33.861 22.5127C33.9306 22.6336 33.9884 22.848 33.9884 23.1772H34.5884C34.5884 22.7915 34.5228 22.4598 34.3811 22.2135C34.2329 21.956 33.9937 21.7852 33.6904 21.7852V22.3852ZM33.9884 23.1772C33.9884 23.8605 33.8073 24.2748 33.6055 24.6028C33.4934 24.7851 33.3945 24.9129 33.2759 25.092C33.1673 25.2562 33.0602 25.4396 32.9988 25.6565L33.5761 25.8199C33.6122 25.6923 33.679 25.5702 33.7763 25.4232C33.8636 25.2912 34.0028 25.1021 34.1166 24.9171C34.3666 24.5106 34.5884 23.9889 34.5884 23.1772H33.9884ZM40.3688 26.6352L40.1043 26.4936L40.103 26.496L40.3688 26.6352ZM41.0578 25.3482L41.3222 25.4898L41.3223 25.4897L41.0578 25.3482ZM40.8238 25.2182L40.559 25.3592L40.8503 25.9061L41.0986 25.3385L40.8238 25.2182ZM40.1868 24.0222L40.4516 23.8812L40.4512 23.8805L40.1868 24.0222ZM37.7168 24.3602L37.9817 24.2194L37.9809 24.218L37.7168 24.3602ZM38.9258 26.6352L38.6608 26.776L38.6612 26.7767L38.9258 26.6352ZM39.6668 27.5592C39.8435 27.5592 40.0303 27.5339 40.2112 27.3813C40.365 27.2515 40.4921 27.0463 40.6345 26.7744L40.103 26.496C39.9594 26.7701 39.8785 26.877 39.8243 26.9227C39.7973 26.9455 39.7761 26.9592 39.6668 26.9592V27.5592ZM40.6332 26.7768L41.3222 25.4898L40.7933 25.2066L40.1043 26.4936L40.6332 26.7768ZM41.3223 25.4897C41.8706 24.4641 42.2594 23.8408 42.516 23.4127C42.6427 23.2013 42.7445 23.0255 42.8138 22.8722C42.8847 22.7153 42.9308 22.5626 42.9308 22.3972H42.3308C42.3308 22.4463 42.3184 22.5114 42.267 22.6251C42.214 22.7423 42.1298 22.8899 42.0013 23.1043C41.7476 23.5277 41.3499 24.1653 40.7932 25.2068L41.3223 25.4897ZM42.9308 22.3972C42.9308 22.1309 42.8082 21.9135 42.5815 21.7819C42.3811 21.6656 42.1221 21.6292 41.8508 21.6292V22.2292C42.0864 22.2292 42.2174 22.2643 42.2803 22.3008C42.3069 22.3163 42.3156 22.3286 42.3192 22.335C42.323 22.3417 42.3308 22.3588 42.3308 22.3972H42.9308ZM41.8508 21.6292C41.5329 21.6292 41.2485 21.67 41.0407 21.8146C40.8038 21.9796 40.7318 22.2285 40.7318 22.4752H41.3318C41.3318 22.3449 41.3637 22.3208 41.3836 22.307C41.4326 22.2729 41.5576 22.2292 41.8508 22.2292V21.6292ZM40.7318 22.4752C40.7318 22.693 40.7695 22.9054 40.8005 23.0995C40.8326 23.3 40.8618 23.5013 40.8618 23.7362H41.4618C41.4618 23.4511 41.4259 23.2105 41.393 23.0047C41.3591 22.7925 41.3318 22.6344 41.3318 22.4752H40.7318ZM40.8618 23.7362C40.8618 24.0858 40.8049 24.5128 40.5489 25.098L41.0986 25.3385C41.3886 24.6756 41.4618 24.1666 41.4618 23.7362H40.8618ZM41.0886 25.0772L40.4516 23.8812L39.922 24.1632L40.559 25.3592L41.0886 25.0772ZM40.4512 23.8805C40.0997 23.2245 40.1228 22.7073 40.1228 22.3582H39.5228C39.5228 22.7111 39.4938 23.364 39.9223 24.1639L40.4512 23.8805ZM40.1228 22.3582C40.1228 22.2249 40.0983 22.097 40.037 21.9838C39.974 21.8674 39.8825 21.786 39.7811 21.7323C39.597 21.6348 39.3766 21.6292 39.2248 21.6292V22.2292C39.2983 22.2292 39.3585 22.2317 39.4088 22.2386C39.4596 22.2456 39.4871 22.2556 39.5004 22.2626C39.5095 22.2674 39.5091 22.2689 39.5094 22.2695C39.5114 22.2733 39.5228 22.2965 39.5228 22.3582H40.1228ZM39.2248 21.6292H36.9888V22.2292H39.2248V21.6292ZM36.9888 21.6292C36.7749 21.6292 36.5744 21.6923 36.4236 21.8285C36.2707 21.9668 36.1948 22.1576 36.1948 22.3582H36.7948C36.7948 22.3118 36.8099 22.2882 36.8259 22.2737C36.8442 22.2572 36.8906 22.2292 36.9888 22.2292V21.6292ZM36.1948 22.3582C36.1948 22.5472 36.2628 22.7194 36.3462 22.8707C36.4296 23.0219 36.5432 23.1779 36.6613 23.3349C36.9035 23.6567 37.1928 24.0199 37.4526 24.5024L37.9809 24.218C37.6947 23.6865 37.373 23.2828 37.1407 22.9741C37.0216 22.8158 36.9321 22.6906 36.8716 22.581C36.8113 22.4715 36.7948 22.4032 36.7948 22.3582H36.1948ZM37.4519 24.501L38.6609 26.776L39.1907 26.4944L37.9817 24.2194L37.4519 24.501ZM38.6612 26.7767C38.8099 27.0546 38.9421 27.263 39.1053 27.3921C39.2944 27.5417 39.489 27.5592 39.6668 27.5592V26.9592C39.5326 26.9592 39.5062 26.9442 39.4775 26.9216C39.423 26.8784 39.3406 26.7748 39.1903 26.4937L38.6612 26.7767Z" fill="#2E2D2D"/>
<path d="M50.7348 25.7076H52.6008C52.9788 25.7076 53.1168 25.6236 53.1168 25.3896C53.1168 25.0956 52.9968 24.8556 52.7148 24.8556C52.2228 24.8556 52.2888 25.5876 51.7308 25.5876H51.6528C51.5448 25.5876 51.4908 25.5156 51.4908 25.4376C51.4908 24.9276 53.1168 23.8896 53.1168 23.0256C53.1168 22.4796 52.3968 22.2576 51.7068 22.2576C51.0708 22.2576 50.4648 22.4436 50.4648 22.8096C50.4648 23.0856 50.7348 23.2236 51.0048 23.2236C51.2748 23.2236 51.5448 23.0856 51.5448 22.8096C51.5448 22.6536 51.4308 22.6176 51.4308 22.5156C51.4308 22.4316 51.5268 22.3776 51.6468 22.3776C51.8208 22.3776 52.0368 22.4976 52.0368 22.8696C52.0368 23.7936 50.4108 24.6756 50.4108 25.4436C50.4108 25.5876 50.5248 25.7076 50.7348 25.7076ZM53.7407 25.7076H55.6067C55.9847 25.7076 56.1227 25.6236 56.1227 25.3896C56.1227 25.0956 56.0027 24.8556 55.7207 24.8556C55.2287 24.8556 55.2947 25.5876 54.7367 25.5876H54.6587C54.5507 25.5876 54.4967 25.5156 54.4967 25.4376C54.4967 24.9276 56.1227 23.8896 56.1227 23.0256C56.1227 22.4796 55.4027 22.2576 54.7127 22.2576C54.0767 22.2576 53.4707 22.4436 53.4707 22.8096C53.4707 23.0856 53.7407 23.2236 54.0107 23.2236C54.2807 23.2236 54.5507 23.0856 54.5507 22.8096C54.5507 22.6536 54.4367 22.6176 54.4367 22.5156C54.4367 22.4316 54.5327 22.3776 54.6527 22.3776C54.8267 22.3776 55.0427 22.4976 55.0427 22.8696C55.0427 23.7936 53.4167 24.6756 53.4167 25.4436C53.4167 25.5876 53.5307 25.7076 53.7407 25.7076Z" fill="black"/>
<path d="M8.21326 26H10.0793C10.4573 26 10.5953 25.916 10.5953 25.682C10.5953 25.388 10.4753 25.148 10.1933 25.148C9.70126 25.148 9.76726 25.88 9.20926 25.88H9.13126C9.02326 25.88 8.96926 25.808 8.96926 25.73C8.96926 25.22 10.5953 24.182 10.5953 23.318C10.5953 22.772 9.87526 22.55 9.18526 22.55C8.54926 22.55 7.94326 22.736 7.94326 23.102C7.94326 23.378 8.21326 23.516 8.48326 23.516C8.75326 23.516 9.02326 23.378 9.02326 23.102C9.02326 22.946 8.90926 22.91 8.90926 22.808C8.90926 22.724 9.00526 22.67 9.12526 22.67C9.29926 22.67 9.51526 22.79 9.51526 23.162C9.51526 24.086 7.88926 24.968 7.88926 25.736C7.88926 25.88 8.00326 26 8.21326 26ZM12.4745 26.03C13.5245 26.03 14.1125 25.418 14.1125 24.29C14.1125 23.162 13.5245 22.55 12.4745 22.55C11.4245 22.55 10.8365 23.162 10.8365 24.29C10.8365 25.418 11.4245 26.03 12.4745 26.03ZM12.4745 25.91C12.0725 25.91 11.9165 25.19 11.9165 24.29C11.9165 23.39 12.1445 22.67 12.4745 22.67C12.8045 22.67 13.0325 23.39 13.0325 24.29C13.0325 25.19 12.8765 25.91 12.4745 25.91Z" fill="black"/>
<line x1="15.2222" y1="24.839" x2="21.6222" y2="24.839" stroke="black" stroke-width="0.3"/>
<line x1="43.6667" y1="24.839" x2="50.0667" y2="24.839" stroke="black" stroke-width="0.3"/>
<path d="M4.63212 20.243L8.57656 18.2381C9.36295 17.8384 9.5888 17.5063 9.41818 16.9877C9.20381 16.3361 8.77916 15.9311 8.19249 16.2293C7.10652 16.7813 7.71206 18.4447 6.93815 18.8381C6.70099 18.9586 6.50552 18.7631 6.37865 18.3774L4.72056 13.3378C4.58932 12.9389 4.71209 12.4264 4.59397 12.0674C4.47147 11.6951 4.23547 11.5978 3.93589 11.75L2.13843 12.6637C1.83885 12.8159 1.72534 13.0909 1.84784 13.4632C1.96596 13.8223 2.34248 14.081 2.47373 14.4799L3.84745 18.6552C3.97869 19.0541 3.85592 19.5666 3.97404 19.9256C4.09654 20.298 4.33254 20.3953 4.63212 20.243Z" fill="#B4E2BA"/>
<path d="M4.72587 20.528L8.67031 18.523L8.48281 17.9531L4.53837 19.9581L4.72587 20.528ZM8.67031 18.523C9.06798 18.3209 9.3889 18.1067 9.57619 17.829C9.67632 17.6806 9.73631 17.5173 9.75138 17.3417C9.76598 17.1716 9.73696 17.0076 9.68566 16.8517L9.1507 17.1236C9.18471 17.227 9.19144 17.2991 9.18711 17.3495C9.18325 17.3945 9.16961 17.4365 9.13631 17.4859C9.05674 17.6039 8.87153 17.7556 8.48281 17.9531L8.67031 18.523ZM9.68566 16.8517C9.56781 16.4935 9.38203 16.169 9.11429 15.9803C8.83257 15.7817 8.48116 15.75 8.09874 15.9444L8.28624 16.5143C8.4905 16.4105 8.64475 16.4321 8.77561 16.5244C8.92045 16.6265 9.05418 16.8303 9.1507 17.1236L9.68566 16.8517ZM8.09874 15.9444C7.3862 16.3066 7.24862 17.0491 7.16894 17.5738C7.12507 17.8626 7.09926 18.083 7.04135 18.2675C6.98869 18.4352 6.92806 18.5106 6.84441 18.5531L7.0319 19.123C7.3352 18.9688 7.48909 18.6888 7.57449 18.4167C7.65464 18.1614 7.69043 17.8578 7.72766 17.6126C7.81018 17.0692 7.91282 16.7041 8.28624 16.5143L8.09874 15.9444ZM6.84441 18.5531C6.83721 18.5568 6.83354 18.5576 6.83283 18.5577C6.83239 18.5578 6.83233 18.5578 6.83252 18.5578C6.8326 18.5578 6.83269 18.5578 6.83277 18.5578C6.83285 18.5578 6.83289 18.5578 6.83287 18.5578C6.83286 18.5578 6.83244 18.5577 6.83155 18.5574C6.83065 18.5572 6.82911 18.5566 6.82693 18.5555C6.82255 18.5534 6.81541 18.5491 6.80587 18.5408C6.76266 18.5033 6.70236 18.4124 6.64613 18.2415L6.11117 18.5134C6.18181 18.7281 6.28268 18.9278 6.42821 19.0543C6.58843 19.1936 6.80264 19.2395 7.0319 19.123L6.84441 18.5531ZM6.64613 18.2415L4.98804 13.2019L4.45308 13.4738L6.11117 18.5134L6.64613 18.2415ZM4.98804 13.2019C4.94077 13.0582 4.93627 12.8839 4.93578 12.6529C4.93534 12.4464 4.93963 12.1691 4.86145 11.9314L4.32649 12.2034C4.36643 12.3248 4.3684 12.4832 4.36891 12.7225C4.36937 12.9372 4.36911 13.2186 4.45308 13.4738L4.98804 13.2019ZM4.86145 11.9314C4.7857 11.7012 4.65945 11.5093 4.46355 11.4185C4.26365 11.3258 4.04405 11.3625 3.84214 11.4651L4.02964 12.035C4.12731 11.9853 4.17551 11.9946 4.19912 12.0055C4.22675 12.0183 4.27974 12.0613 4.32649 12.2034L4.86145 11.9314ZM3.84214 11.4651L2.04468 12.3787L2.23217 12.9486L4.02964 12.035L3.84214 11.4651ZM2.04468 12.3787C1.84277 12.4814 1.66541 12.6464 1.57506 12.8867C1.48652 13.1221 1.50461 13.369 1.58036 13.5992L2.11532 13.3273C2.06857 13.1852 2.08217 13.1084 2.09465 13.0752C2.10533 13.0468 2.1345 12.9983 2.23217 12.9486L2.04468 12.3787ZM1.58036 13.5992C1.65854 13.8368 1.81795 14.031 1.93403 14.1786C2.06392 14.3439 2.15898 14.4722 2.20625 14.6159L2.74121 14.3439C2.65723 14.0887 2.49841 13.8882 2.3777 13.7346C2.24317 13.5634 2.15526 13.4487 2.11532 13.3273L1.58036 13.5992ZM2.20625 14.6159L3.57997 18.7912L4.11493 18.5192L2.74121 14.3439L2.20625 14.6159ZM3.57997 18.7912C3.62724 18.9348 3.63174 19.1091 3.63223 19.3402C3.63268 19.5466 3.62838 19.824 3.70656 20.0616L4.24152 19.7897C4.20158 19.6683 4.19961 19.5099 4.1991 19.2706C4.19864 19.0559 4.1989 18.7745 4.11493 18.5192L3.57997 18.7912ZM3.70656 20.0616C3.78231 20.2918 3.90856 20.4837 4.10446 20.5746C4.30436 20.6673 4.52396 20.6306 4.72587 20.528L4.53837 19.9581C4.4407 20.0077 4.39251 19.9985 4.36889 19.9875C4.34126 19.9747 4.28827 19.9318 4.24152 19.7897L3.70656 20.0616Z" fill="#2E2D2D"/>
<path d="M13.735 16.1395C14.8756 15.7536 14.6934 15.1247 15.1841 14.9586C15.6218 14.8105 15.8703 15.417 17.064 15.0131C17.8465 14.7483 18.2187 14.2404 18.1127 13.762C17.9854 13.188 17.7293 13.3187 17.4748 12.1707L17.3355 11.542C16.9084 9.61494 15.6724 9.31326 13.7625 9.95952C12.4362 10.4083 11.2989 11.1311 11.5019 12.0468C11.6503 12.7164 12.3627 12.8427 12.9728 12.6363C13.5563 12.4388 14.0467 11.9496 13.9195 11.3756C13.8196 10.9246 13.5554 10.9552 13.4888 10.6545C13.4464 10.4632 13.5692 10.2453 13.8079 10.1645C14.166 10.0434 14.4847 10.2588 14.6634 11.0651L14.8966 12.1175C13.3183 12.6516 11.153 13.5606 11.5347 15.2826C11.7074 16.0617 12.5015 16.5569 13.735 16.1395ZM14.8337 14.8569C14.3562 15.0184 13.9856 14.7618 13.8705 14.2425C13.7615 13.7504 13.8939 12.8682 14.9572 12.3908L15.242 13.6756C15.4146 14.4546 15.1785 14.7402 14.8337 14.8569Z" fill="#B4E2BA"/>
<path d="M14.8966 12.1175L14.9615 12.4104L15.2458 12.3142L15.1808 12.0213L14.8966 12.1175ZM14.9572 12.3908L15.2414 12.2947L15.1699 11.9718L14.865 12.1087L14.9572 12.3908ZM13.7999 16.4324C14.4362 16.2171 14.7331 15.9186 14.9319 15.6347C14.9764 15.571 15.016 15.5082 15.0468 15.4604C15.0799 15.4091 15.1042 15.373 15.1277 15.3432C15.167 15.2933 15.1977 15.2689 15.2491 15.2515L15.1192 14.6658C14.9252 14.7314 14.7946 14.8479 14.6945 14.9747C14.6483 15.0333 14.6082 15.0944 14.5746 15.1466C14.5387 15.2023 14.5093 15.2491 14.4747 15.2986C14.3566 15.4671 14.1743 15.676 13.67 15.8467L13.7999 16.4324ZM15.2491 15.2515C15.2825 15.2402 15.319 15.2378 15.3945 15.2595C15.4351 15.2712 15.4789 15.2873 15.5376 15.3092C15.5936 15.33 15.6607 15.3552 15.7351 15.3783C16.0519 15.4766 16.4717 15.5283 17.1289 15.306L16.9991 14.7202C16.4626 14.9018 16.1613 14.8522 15.946 14.7853C15.8874 14.7671 15.8333 14.747 15.7755 14.7254C15.7204 14.7049 15.6577 14.6815 15.5948 14.6634C15.4634 14.6257 15.3047 14.603 15.1192 14.6658L15.2491 15.2515ZM17.1289 15.306C17.5578 15.1608 17.9064 14.9387 18.1357 14.6549C18.3712 14.3634 18.4736 14.0121 18.3969 13.6658L17.8284 13.8582C17.8577 13.9903 17.8271 14.1321 17.7073 14.2804C17.5814 14.4363 17.3526 14.6006 16.9991 14.7202L17.1289 15.306ZM18.3969 13.6658C18.3201 13.3196 18.1908 13.1616 18.0905 12.9978C17.9967 12.8445 17.88 12.6204 17.759 12.0745L17.1906 12.2669C17.3241 12.869 17.4627 13.1536 17.5923 13.3655C17.7156 13.5668 17.778 13.6304 17.8284 13.8582L18.3969 13.6658ZM17.759 12.0745L17.6197 11.4458L17.0513 11.6382L17.1906 12.2669L17.759 12.0745ZM17.6197 11.4458C17.3932 10.4239 16.9359 9.77281 16.228 9.49543C15.5387 9.22539 14.6742 9.33618 13.6976 9.66665L13.8274 10.2524C14.7607 9.9366 15.4691 9.8751 15.9821 10.0761C16.4764 10.2698 16.8507 10.7331 17.0513 11.6382L17.6197 11.4458ZM13.6976 9.66665C13.0199 9.89597 12.3621 10.2038 11.8928 10.592C11.4214 10.9818 11.0781 11.5131 11.2177 12.1429L11.7861 11.9506C11.7227 11.6647 11.8466 11.3768 12.2247 11.0641C12.6048 10.7498 13.1788 10.4719 13.8274 10.2524L13.6976 9.66665ZM11.2177 12.1429C11.3163 12.5878 11.6076 12.8515 11.9549 12.9653C12.2933 13.0762 12.6862 13.0481 13.0377 12.9291L12.9079 12.3434C12.6492 12.4309 12.381 12.4428 12.1735 12.3748C11.9749 12.3097 11.8359 12.1754 11.7861 11.9506L11.2177 12.1429ZM13.0377 12.9291C13.3719 12.816 13.6969 12.6144 13.9251 12.3366C14.1599 12.0507 14.2924 11.6795 14.2037 11.2794L13.6353 11.4718C13.6739 11.6457 13.6248 11.8062 13.5003 11.9577C13.3691 12.1174 13.1572 12.259 12.9079 12.3434L13.0377 12.9291ZM14.2037 11.2794C14.1379 10.9823 14.0101 10.833 13.9015 10.7251C13.7988 10.6229 13.7848 10.6113 13.773 10.5583L13.2046 10.7507C13.2595 10.9984 13.4109 11.1218 13.4818 11.1923C13.5469 11.257 13.6012 11.3178 13.6353 11.4718L14.2037 11.2794ZM13.773 10.5583C13.771 10.5492 13.7716 10.537 13.7818 10.5207C13.7919 10.5044 13.8175 10.4761 13.8729 10.4574L13.743 9.87166C13.3748 9.99627 13.1204 10.3707 13.2046 10.7507L13.773 10.5583ZM13.8729 10.4574C13.9599 10.4279 14.0253 10.4363 14.0972 10.5046C14.1869 10.5899 14.2948 10.7806 14.3792 11.1613L14.9476 10.969C14.8533 10.5433 14.7125 10.2231 14.5086 10.0294C14.287 9.81873 14.0141 9.77994 13.743 9.87166L13.8729 10.4574ZM14.3792 11.1613L14.6124 12.2137L15.1808 12.0213L14.9476 10.969L14.3792 11.1613ZM14.8317 11.8246C14.0421 12.0918 13.0645 12.4652 12.3294 13.007C11.9596 13.2796 11.6314 13.6089 11.4243 14.0085C11.2126 14.4169 11.1392 14.8769 11.2505 15.3788L11.8189 15.1865C11.7393 14.8274 11.7935 14.5279 11.9298 14.2649C12.0707 13.993 12.3109 13.7388 12.632 13.5021C13.2787 13.0254 14.1729 12.6772 14.9615 12.4104L14.8317 11.8246ZM11.2505 15.3788C11.3558 15.8541 11.6521 16.2418 12.1021 16.445C12.5504 16.6475 13.1308 16.6588 13.7999 16.4324L13.67 15.8467C13.1057 16.0376 12.6723 16.0101 12.3719 15.8744C12.0733 15.7396 11.8862 15.4901 11.8189 15.1865L11.2505 15.3788ZM14.7687 14.564C14.6028 14.6202 14.4777 14.5988 14.3855 14.5386C14.2891 14.4756 14.2001 14.3509 14.1547 14.1463L13.5863 14.3386C13.6561 14.6534 13.8099 14.9166 14.0469 15.0714C14.2881 15.229 14.5871 15.2551 14.8986 15.1497L14.7687 14.564ZM14.1547 14.1463C14.1127 13.9567 14.1174 13.6867 14.2359 13.4208C14.3505 13.1639 14.584 12.8819 15.0494 12.673L14.865 12.1087C14.2671 12.3771 13.9028 12.7749 13.7125 13.2015C13.5263 13.6191 13.5193 14.0362 13.5863 14.3386L14.1547 14.1463ZM14.673 12.487L14.9577 13.7717L15.5262 13.5794L15.2414 12.2947L14.673 12.487ZM14.9577 13.7717C15.0384 14.1357 15.0074 14.3203 14.9694 14.4067C14.9403 14.473 14.8887 14.5234 14.7687 14.564L14.8986 15.1497C15.1235 15.0736 15.3623 14.9229 15.4943 14.6224C15.6175 14.3421 15.6182 13.9944 15.5262 13.5794L14.9577 13.7717Z" fill="#2E2D2D"/>
<path d="M23.2572 13.5889C24.966 13.282 26.3093 12.5153 26.1815 11.4591C25.9998 9.95812 22.5707 9.77874 22.4159 8.50013C22.3705 8.12488 22.6861 7.94041 22.9892 7.88596C23.2373 7.84142 23.4816 7.88273 23.5035 8.0634C23.5271 8.25798 23.2804 8.43008 23.3224 8.77753C23.3914 9.34734 24.0176 9.51888 24.624 9.40999C25.2579 9.29615 25.8685 8.87408 25.7962 8.27647C25.7053 7.52598 24.5487 7.39289 22.964 7.67749C21.2552 7.98437 19.9119 8.75102 20.0397 9.80726C20.2214 11.3082 23.6505 11.4876 23.8053 12.7662C23.8507 13.1415 23.5351 13.326 23.2319 13.3804C22.9839 13.4249 22.7395 13.3836 22.7177 13.203C22.6941 13.0084 22.9408 12.8363 22.8987 12.4888C22.8298 11.919 22.2036 11.7475 21.5972 11.8564C20.9633 11.9702 20.3526 12.3923 20.425 12.9899C20.5158 13.7404 21.6724 13.8735 23.2572 13.5889Z" fill="#B4E2BA"/>
<path d="M23.2932 13.8867C24.1706 13.7291 24.9802 13.4498 25.5637 13.0538C26.1478 12.6573 26.5606 12.0986 26.4768 11.4061L25.8862 11.5121C25.9302 11.8758 25.7352 12.2286 25.2525 12.5562C24.769 12.8843 24.0525 13.1418 23.2211 13.2911L23.2932 13.8867ZM26.4768 11.4061C26.4169 10.9118 26.0926 10.5584 25.7172 10.2921C25.3409 10.0252 24.8641 9.81165 24.4183 9.61718C23.9593 9.41697 23.535 9.23756 23.2115 9.03185C22.8807 8.82153 22.7335 8.63111 22.7112 8.4471L22.1206 8.55316C22.1757 9.00845 22.5151 9.31993 22.8765 9.54976C23.2452 9.78421 23.7185 9.98319 24.1589 10.1753C24.6124 10.3731 25.0366 10.5657 25.3592 10.7945C25.6827 11.024 25.8551 11.2559 25.8862 11.5121L26.4768 11.4061ZM22.7112 8.4471C22.7053 8.39885 22.7122 8.36976 22.719 8.35252C22.726 8.33472 22.7385 8.31552 22.7618 8.29458C22.8137 8.24799 22.9066 8.20509 23.0253 8.18377L22.9532 7.58815C22.7687 7.62127 22.5522 7.69784 22.3818 7.85091C22.1963 8.01758 22.0851 8.25975 22.1206 8.55316L22.7112 8.4471ZM23.0253 8.18377C23.1228 8.16626 23.1974 8.17056 23.2357 8.18161C23.2534 8.1867 23.2498 8.18935 23.2387 8.17871C23.224 8.16467 23.2112 8.14149 23.2082 8.11644L23.7988 8.01037C23.7686 7.76099 23.58 7.64307 23.4266 7.59884C23.2753 7.55521 23.1037 7.56112 22.9532 7.58815L23.0253 8.18377ZM23.2082 8.11644C23.2056 8.09461 23.2129 8.08609 23.2036 8.10982C23.1904 8.14353 23.1763 8.16763 23.1403 8.24206C23.0766 8.37406 22.9956 8.57017 23.0271 8.83056L23.6177 8.7245C23.6072 8.63744 23.6285 8.57377 23.6717 8.48421C23.6893 8.44786 23.7297 8.37074 23.7548 8.3066C23.7839 8.23248 23.8132 8.12949 23.7988 8.01037L23.2082 8.11644ZM23.0271 8.83056C23.0765 9.23851 23.3319 9.49804 23.6461 9.62908C23.9505 9.75604 24.3179 9.76925 24.66 9.70781L24.5879 9.11218C24.3237 9.15963 24.0748 9.14151 23.8972 9.06747C23.7295 8.9975 23.6373 8.88636 23.6177 8.7245L23.0271 8.83056ZM24.66 9.70781C25.0184 9.64345 25.3857 9.49017 25.6614 9.24961C25.9435 9.00346 26.1431 8.64944 26.0915 8.22344L25.5009 8.3295C25.5217 8.50112 25.452 8.65694 25.2884 8.79969C25.1184 8.94802 24.8635 9.0627 24.5879 9.11218L24.66 9.70781ZM26.0915 8.22344C26.023 7.65779 25.5489 7.39021 25.0085 7.29103C24.4598 7.19032 23.7339 7.23494 22.9279 7.37968L23 7.97531C23.7788 7.83544 24.4236 7.80431 24.8721 7.88662C25.3289 7.97046 25.4785 8.14467 25.5009 8.3295L26.0915 8.22344ZM22.9279 7.37968C22.0505 7.53725 21.241 7.81661 20.6575 8.21258C20.0733 8.60906 19.6606 9.16776 19.7444 9.86029L20.335 9.75423C20.291 9.39052 20.486 9.03777 20.9687 8.71014C21.4522 8.38202 22.1687 8.12461 23 7.97531L22.9279 7.37968ZM19.7444 9.86029C19.8042 10.3546 20.1286 10.708 20.504 10.9742C20.8803 11.2412 21.3571 11.4547 21.8029 11.6492C22.2619 11.8494 22.6862 12.0288 23.0097 12.2345C23.3404 12.4448 23.4877 12.6353 23.51 12.8193L24.1006 12.7132C24.0455 12.2579 23.7061 11.9464 23.3446 11.7166C22.976 11.4822 22.5026 11.2832 22.0623 11.0911C21.6088 10.8933 21.1846 10.7006 20.862 10.4718C20.5384 10.2423 20.366 10.0104 20.335 9.75423L19.7444 9.86029ZM23.51 12.8193C23.5158 12.8675 23.5089 12.8966 23.5021 12.9138C23.4951 12.9316 23.4826 12.9508 23.4593 12.9718C23.4075 13.0184 23.3146 13.0613 23.1959 13.0826L23.268 13.6782C23.4525 13.6451 23.669 13.5685 23.8393 13.4155C24.0249 13.2488 24.1361 13.0066 24.1006 12.7132L23.51 12.8193ZM23.1959 13.0826C23.0983 13.1001 23.0238 13.0958 22.9854 13.0848C22.9678 13.0797 22.9714 13.077 22.9825 13.0876C22.9971 13.1017 23.0099 13.1249 23.013 13.1499L22.4224 13.256C22.4526 13.5054 22.6412 13.6233 22.7945 13.6675C22.9459 13.7112 23.1175 13.7052 23.268 13.6782L23.1959 13.0826ZM23.013 13.1499C23.0156 13.1718 23.0082 13.1803 23.0175 13.1565C23.0307 13.1228 23.0449 13.0987 23.0808 13.0243C23.1445 12.8923 23.2256 12.6962 23.194 12.4358L22.6034 12.5419C22.614 12.6289 22.5927 12.6926 22.5494 12.7822C22.5319 12.8185 22.4915 12.8956 22.4663 12.9598C22.4373 13.0339 22.4079 13.1369 22.4224 13.256L23.013 13.1499ZM23.194 12.4358C23.1446 12.0279 22.8892 11.7683 22.575 11.6373C22.2706 11.5103 21.9033 11.4971 21.5612 11.5586L21.6333 12.1542C21.8975 12.1067 22.1464 12.1248 22.3239 12.1989C22.4917 12.2689 22.5838 12.38 22.6034 12.5419L23.194 12.4358ZM21.5612 11.5586C21.2028 11.6229 20.8355 11.7762 20.5598 12.0168C20.2777 12.2629 20.0781 12.6169 20.1297 13.0429L20.7203 12.9369C20.6995 12.7652 20.7691 12.6094 20.9327 12.4667C21.1027 12.3183 21.3577 12.2037 21.6333 12.1542L21.5612 11.5586ZM20.1297 13.0429C20.1982 13.6086 20.6723 13.8762 21.2127 13.9753C21.7614 14.076 22.4873 14.0314 23.2932 13.8867L23.2211 13.2911C22.4423 13.4309 21.7975 13.4621 21.3491 13.3797C20.8923 13.2959 20.7427 13.1217 20.7203 12.9369L20.1297 13.0429Z" fill="#2E2D2D"/>
<path d="M32.2759 12.7463C34.1229 12.686 34.9675 11.832 34.9562 11.4262C34.9524 11.2862 34.8801 11.2045 34.7541 11.2087C34.4463 11.2187 34.1497 11.6346 33.2262 11.6647C31.785 11.7117 31.2365 10.623 31.1973 9.2096C31.1514 7.55824 31.6148 7.09489 32.1465 7.07755C32.4823 7.06659 32.6549 7.22905 32.6603 7.42497C32.6689 7.73285 32.4046 7.7975 32.4174 8.25932C32.4337 8.8471 33.0299 9.1358 33.6456 9.11572C34.2893 9.09472 34.9512 8.72294 34.9322 8.03721C34.9061 7.09957 33.6239 6.81924 32.1966 6.8658C30.2377 6.92971 28.632 7.61242 28.6942 9.85155C28.7431 11.6149 30.0091 12.8202 32.2759 12.7463Z" fill="#B4E2BA"/>
<path d="M32.2842 13.0461C33.2516 13.0146 33.9774 12.7745 34.4694 12.471C34.7147 12.3197 34.9064 12.1498 35.0391 11.9777C35.1663 11.8127 35.2616 11.6158 35.2561 11.4164L34.6564 11.436C34.6564 11.4346 34.6567 11.45 34.6427 11.484C34.6291 11.517 34.6047 11.5608 34.5647 11.6127C34.4845 11.7167 34.3517 11.8401 34.1564 11.9606C33.7672 12.2006 33.1472 12.4177 32.2675 12.4464L32.2842 13.0461ZM35.2561 11.4164C35.2529 11.3001 35.2202 11.1666 35.1224 11.06C35.019 10.9472 34.8793 10.9044 34.7458 10.9088L34.7625 11.5085C34.7607 11.5086 34.7488 11.5087 34.7312 11.502C34.7127 11.495 34.6943 11.483 34.6795 11.4668C34.6503 11.435 34.6557 11.4123 34.6564 11.436L35.2561 11.4164ZM34.7458 10.9088C34.6047 10.9134 34.4822 10.9639 34.3871 11.0093C34.3385 11.0326 34.2879 11.0592 34.2412 11.0836C34.1927 11.1089 34.1446 11.1338 34.0928 11.1585C33.8939 11.2536 33.6298 11.3514 33.2179 11.3648L33.2345 11.9646C33.7462 11.9479 34.092 11.8227 34.3493 11.6998C34.4115 11.67 34.4679 11.6408 34.5167 11.6153C34.5672 11.5889 34.6068 11.5681 34.6436 11.5505C34.7196 11.5142 34.7496 11.509 34.7625 11.5085L34.7458 10.9088ZM33.2179 11.3648C32.5863 11.3854 32.1872 11.1628 31.9289 10.8076C31.6572 10.434 31.516 9.87821 31.4971 9.19982L30.8975 9.21938C30.9179 9.95444 31.0705 10.6497 31.4431 11.1621C31.8291 11.6928 32.4249 11.991 33.2345 11.9646L33.2179 11.3648ZM31.4971 9.19982C31.4747 8.39284 31.58 7.92801 31.7186 7.67329C31.8428 7.445 31.9932 7.3827 32.1548 7.37743L32.1382 6.77766C31.768 6.78974 31.4209 6.96779 31.192 7.38835C30.9775 7.78248 30.874 8.375 30.8975 9.21938L31.4971 9.19982ZM32.1548 7.37743C32.2753 7.3735 32.3302 7.40187 32.3477 7.41487C32.3604 7.42431 32.3603 7.42882 32.3605 7.43475L32.9602 7.41519C32.9549 7.2252 32.8658 7.05052 32.7069 6.93249C32.5528 6.81802 32.3535 6.77064 32.1382 6.77766L32.1548 7.37743ZM32.3605 7.43475C32.362 7.48901 32.3512 7.50495 32.2762 7.63791C32.1969 7.77842 32.1091 7.9649 32.1175 8.26911L32.7172 8.24954C32.7128 8.09193 32.7508 8.01517 32.7983 7.93093C32.8501 7.83914 32.9672 7.66881 32.9602 7.41519L32.3605 7.43475ZM32.1175 8.26911C32.1289 8.67875 32.3483 8.98272 32.6464 9.16984C32.936 9.3516 33.3013 9.42711 33.6539 9.4156L33.6373 8.81583C33.3743 8.82442 33.1336 8.76561 32.967 8.66109C32.8091 8.56194 32.7222 8.42767 32.7172 8.24954L32.1175 8.26911ZM33.6539 9.4156C34.0248 9.4035 34.4138 9.2909 34.7157 9.06614C35.0256 8.83546 35.2447 8.48294 35.232 8.02743L34.6323 8.04699C34.6387 8.27722 34.5363 8.45344 34.3591 8.58533C34.1739 8.72315 33.9101 8.80693 33.6373 8.81583L33.6539 9.4156ZM35.232 8.02743C35.2141 7.38209 34.7501 7.00149 34.193 6.80018C33.6384 6.5998 32.9168 6.54215 32.1883 6.56592L32.2049 7.16569C32.9037 7.14289 33.5369 7.20213 33.9867 7.36469C34.4341 7.52632 34.6242 7.75469 34.6323 8.04699L35.232 8.02743ZM32.1883 6.56592C31.1867 6.59859 30.2238 6.78924 29.5133 7.29953C28.781 7.82542 28.3609 8.65818 28.3943 9.86133L28.994 9.84177C28.9652 8.80579 29.3169 8.17763 29.8616 7.78641C30.4281 7.37958 31.2475 7.19692 32.2049 7.16569L32.1883 6.56592ZM28.3943 9.86133C28.4208 10.8159 28.7795 11.6427 29.459 12.2174C30.1353 12.7894 31.0973 13.0849 32.2842 13.0461L32.2675 12.4464C31.1876 12.4816 30.3832 12.2114 29.8476 11.7584C29.3152 11.308 29.0165 10.6505 28.994 9.84177L28.3943 9.86133Z" fill="#2E2D2D"/>
<path d="M39.0244 13.1313C40.2198 13.2739 40.2233 12.6124 40.7377 12.6738C41.1964 12.7285 41.2624 13.3982 42.5134 13.5474C43.3336 13.6452 43.8312 13.3384 43.8649 12.8496C43.9053 12.2629 43.6244 12.2717 43.7051 11.0984L43.7494 10.4559C43.885 8.48648 42.7922 7.66614 40.7905 7.42742C39.4005 7.26165 38.1134 7.43205 38.0489 8.36787C38.0018 9.05227 38.645 9.48103 39.2844 9.55729C39.8961 9.63023 40.5011 9.39257 40.5414 8.80594C40.5732 8.34501 40.3129 8.25764 40.3341 7.95036C40.3475 7.75481 40.5259 7.6071 40.7761 7.63694C41.1514 7.6817 41.3944 8.02048 41.3376 8.84456L41.2636 9.92005C39.6094 9.72278 37.2904 9.6152 37.1692 11.3751C37.1144 12.1713 37.7316 12.9771 39.0244 13.1313ZM40.4324 12.4261C39.9319 12.3664 39.6511 11.9668 39.6877 11.4361C39.7223 10.9332 40.0968 10.1752 41.2444 10.1994L41.154 11.5123C41.0992 12.3085 40.7938 12.4692 40.4324 12.4261Z" fill="#B4E2BA"/>
<path d="M41.2636 9.92005L41.243 10.2194L41.5409 10.2549L41.5615 9.95558L41.2636 9.92005ZM41.2444 10.1994L41.5422 10.2349L41.5649 9.905L41.2359 9.89807L41.2444 10.1994ZM39.0038 13.4306C39.6707 13.5101 40.0376 13.3641 40.3069 13.1886C40.3673 13.1492 40.4228 13.1084 40.4656 13.0777C40.5115 13.0447 40.5448 13.0219 40.5756 13.0047C40.6271 12.9758 40.6632 12.9666 40.717 12.9731L40.7583 12.3745C40.5549 12.3502 40.3977 12.4007 40.2666 12.4742C40.206 12.5081 40.1507 12.5471 40.1039 12.5807C40.0541 12.6164 40.0128 12.6469 39.9659 12.6774C39.806 12.7816 39.5735 12.895 39.045 12.832L39.0038 13.4306ZM40.717 12.9731C40.7521 12.9772 40.7875 12.991 40.8534 13.0442C40.8887 13.0727 40.926 13.1068 40.9757 13.1528C41.0232 13.1966 41.0801 13.2492 41.1445 13.3032C41.4186 13.5329 41.8041 13.7646 42.4928 13.8467L42.5341 13.2481C41.9718 13.181 41.6987 13.0033 41.5124 12.8471C41.4616 12.8046 41.4158 12.7623 41.3667 12.717C41.32 12.6739 41.2669 12.6248 41.212 12.5805C41.0974 12.4881 40.9526 12.3976 40.7583 12.3745L40.717 12.9731ZM42.4928 13.8467C42.9424 13.9003 43.3371 13.8476 43.6354 13.6855C43.9419 13.519 44.1384 13.2389 44.1627 12.8851L43.567 12.814C43.5577 12.9491 43.4886 13.0668 43.3327 13.1515C43.1688 13.2405 42.9046 13.2923 42.5341 13.2481L42.4928 13.8467ZM44.1627 12.8851C44.1871 12.5312 44.1084 12.3285 44.059 12.133C44.0127 11.9501 43.9646 11.6918 44.003 11.1339L43.4073 11.0629C43.3649 11.6783 43.4168 12.0022 43.4807 12.2549C43.5415 12.4951 43.583 12.5813 43.567 12.814L44.1627 12.8851ZM44.003 11.1339L44.0472 10.4914L43.4515 10.4204L43.4073 11.0629L44.003 11.1339ZM44.0472 10.4914C44.1191 9.44702 43.8668 8.64456 43.2703 8.07797C42.6896 7.52634 41.8347 7.25019 40.8111 7.12812L40.7699 7.72673C41.748 7.84337 42.4403 8.09675 42.8725 8.50733C43.289 8.90294 43.5152 9.49536 43.4515 10.4204L44.0472 10.4914ZM40.8111 7.12812C40.1008 7.04341 39.3874 7.04006 38.8309 7.19351C38.272 7.34762 37.7954 7.6887 37.7511 8.33234L38.3468 8.40339C38.3669 8.11121 38.566 7.89918 39.0143 7.77559C39.4649 7.65132 40.0901 7.64566 40.7699 7.72673L40.8111 7.12812ZM37.7511 8.33234C37.7198 8.78697 37.9232 9.15845 38.222 9.41584C38.5131 9.66662 38.8955 9.81266 39.2638 9.85659L39.3051 9.25798C39.034 9.22566 38.775 9.11919 38.5965 8.96543C38.4256 8.81827 38.331 8.63317 38.3468 8.40339L37.7511 8.33234ZM39.2638 9.85659C39.6142 9.89837 39.9806 9.85419 40.2762 9.6972C40.5804 9.53559 40.8112 9.25031 40.8393 8.84146L40.2436 8.77041C40.2313 8.9482 40.1394 9.07507 39.9781 9.16071C39.8082 9.25097 39.5664 9.28915 39.3051 9.25798L39.2638 9.85659ZM40.8393 8.84146C40.8602 8.53784 40.7805 8.34374 40.7074 8.19636C40.6383 8.05691 40.6282 8.04004 40.6319 7.98588L40.0362 7.91484C40.0188 8.16796 40.1283 8.34842 40.176 8.4447C40.2198 8.53306 40.2544 8.61311 40.2436 8.77041L40.8393 8.84146ZM40.6319 7.98588C40.6326 7.97655 40.6365 7.96555 40.6509 7.95491C40.6651 7.94431 40.6975 7.92932 40.7555 7.93624L40.7967 7.33763C40.4107 7.2916 40.0629 7.52651 40.0362 7.91484L40.6319 7.98588ZM40.7555 7.93624C40.8467 7.94712 40.9067 7.98346 40.956 8.07819C41.0174 8.19634 41.0665 8.41996 41.0398 8.80904L41.6355 8.88008C41.6655 8.44507 41.6214 8.08727 41.4818 7.81881C41.3299 7.52694 41.0808 7.37151 40.7967 7.33763L40.7555 7.93624ZM41.0398 8.80904L40.9657 9.88453L41.5615 9.95558L41.6355 8.88008L41.0398 8.80904ZM41.2842 9.62075C40.4566 9.52205 39.42 9.43921 38.5671 9.61842C38.1379 9.70858 37.7325 9.86941 37.4227 10.1483C37.106 10.4333 36.9066 10.8266 36.8713 11.3396L37.4671 11.4106C37.4923 11.0436 37.6282 10.7904 37.8322 10.6068C38.043 10.4171 38.3434 10.2871 38.716 10.2089C39.4663 10.0512 40.4164 10.1208 41.243 10.2194L41.2842 9.62075ZM36.8713 11.3396C36.8379 11.8254 37.011 12.3137 37.3826 12.6988C37.7527 13.0823 38.3025 13.347 39.0038 13.4306L39.045 12.832C38.4535 12.7615 38.0483 12.5461 37.8003 12.2891C37.5538 12.0337 37.4457 11.721 37.4671 11.4106L36.8713 11.3396ZM40.453 12.1268C40.279 12.1061 40.1659 12.0315 40.095 11.9354C40.0209 11.835 39.9711 11.6807 39.9855 11.4716L39.3898 11.4005C39.3676 11.7222 39.4401 12.033 39.6223 12.28C39.8078 12.5314 40.0853 12.6865 40.4118 12.7254L40.453 12.1268ZM39.9855 11.4716C39.9989 11.2778 40.0793 11.0301 40.2671 10.8361C40.4486 10.6487 40.7505 10.4902 41.2528 10.5007L41.2359 9.89807C40.5907 9.88446 40.1315 10.0928 39.8302 10.4041C39.5352 10.7087 39.4111 11.0914 39.3898 11.4005L39.9855 11.4716ZM40.9465 10.1639L40.8561 11.4768L41.4518 11.5479L41.5422 10.2349L40.9465 10.1639ZM40.8561 11.4768C40.8305 11.8488 40.7489 12.0059 40.6884 12.0692C40.642 12.1178 40.5786 12.1418 40.453 12.1268L40.4118 12.7254C40.6475 12.7535 40.9175 12.7188 41.1279 12.4987C41.3241 12.2933 41.4226 11.972 41.4518 11.5479L40.8561 11.4768Z" fill="#2E2D2D"/>
<path d="M51.7027 15.9851C52.3091 16.1553 52.9233 15.9517 53.0063 15.4687C53.0916 14.9719 52.7348 14.8284 52.8605 14.097L53.2041 12.0962C53.3866 11.0337 52.7251 10.1971 51.7277 9.91713C50.0565 9.44803 49.8234 10.641 49.3607 11.0318L49.5219 10.0935C49.6001 9.63812 49.4517 9.35057 49.0204 9.22952C48.8991 9.19547 48.735 9.16387 48.5503 9.16989L47.5484 9.16348C46.9269 9.16261 46.8027 9.47487 46.7719 9.65426C46.7008 10.0682 46.93 10.3785 46.8328 10.9442L46.546 12.6139C46.4749 13.0279 46.1367 13.3524 46.0727 13.725C46.0063 14.1114 46.1618 14.3575 46.4853 14.4483L48.426 14.9931C48.7495 15.0838 48.9713 14.9436 49.0377 14.5572C49.1017 14.1847 48.9009 13.7088 48.972 13.2949L49.3014 11.3768C49.5772 11.2517 49.8229 11.2194 50.052 11.2837C50.4429 11.3934 50.7213 11.7464 50.6004 12.4502L50.3634 13.8301C50.2165 14.6856 50.3953 15.6182 51.7027 15.9851Z" fill="#B4E2BA"/>
<path d="M49.3607 11.0318L49.0719 10.9508L48.9239 11.8126L49.5575 11.2774L49.3607 11.0318ZM48.5503 9.16989L48.5759 9.4767L48.5867 9.47635L48.5503 9.16989ZM47.5484 9.16348L47.5228 8.85687L47.5214 8.85687L47.5484 9.16348ZM49.3014 11.3768L49.1642 11.0936L49.0375 11.1511L49.0126 11.2957L49.3014 11.3768ZM51.6519 16.2808C52.0072 16.3805 52.3731 16.3739 52.6721 16.2616C52.9707 16.1495 53.232 15.9173 53.2951 15.5498L52.7175 15.3876C52.6977 15.5031 52.6104 15.6142 52.4295 15.6821C52.249 15.7499 52.0046 15.7599 51.7534 15.6894L51.6519 16.2808ZM53.2951 15.5498C53.3534 15.2101 53.2522 14.9694 53.1944 14.7952C53.1432 14.6407 53.0977 14.4783 53.1493 14.1781L52.5717 14.016C52.4976 14.4472 52.5677 14.7221 52.6421 14.9465C52.71 15.1511 52.7445 15.2305 52.7175 15.3876L53.2951 15.5498ZM53.1493 14.1781L53.4929 12.1773L52.9153 12.0151L52.5717 14.016L53.1493 14.1781ZM53.4929 12.1773C53.5976 11.5678 53.4612 11.0017 53.1382 10.546C52.8184 10.095 52.3343 9.77744 51.7785 9.62143L51.677 10.2128C52.1185 10.3368 52.4638 10.5775 52.6786 10.8804C52.89 11.1786 52.9932 11.562 52.9153 12.0151L53.4929 12.1773ZM51.7785 9.62143C51.3269 9.49465 50.9532 9.47489 50.6381 9.5369C50.3212 9.59927 50.0805 9.74108 49.8895 9.91059C49.7023 10.0767 49.5623 10.2706 49.4494 10.4298C49.3277 10.6015 49.2482 10.7151 49.1639 10.7863L49.5575 11.2774C49.7045 11.1532 49.8277 10.9711 49.9321 10.8238C50.0453 10.6641 50.1548 10.5157 50.2926 10.3934C50.4266 10.2745 50.5864 10.1816 50.7977 10.14C51.0109 10.098 51.293 10.1051 51.677 10.2128L51.7785 9.62143ZM49.6495 11.1129L49.8107 10.1746L49.2331 10.0124L49.0719 10.9508L49.6495 11.1129ZM49.8107 10.1746C49.8557 9.91248 49.8468 9.63945 49.7112 9.39926C49.571 9.15077 49.3361 9.00818 49.0712 8.93382L48.9696 9.52521C49.136 9.57191 49.1909 9.63362 49.2132 9.67301C49.2401 9.7207 49.2663 9.81913 49.2331 10.0124L49.8107 10.1746ZM49.0712 8.93382C48.9292 8.89397 48.7348 8.85624 48.5139 8.86343L48.5867 9.47635C48.7352 9.47151 48.869 9.49697 48.9696 9.52521L49.0712 8.93382ZM48.5247 8.86329L47.5228 8.85688L47.574 9.47007L48.5759 9.47649L48.5247 8.86329ZM47.5214 8.85687C47.1642 8.85637 46.9093 8.94638 46.7367 9.10025C46.5638 9.25434 46.5052 9.44431 46.4831 9.5732L47.0607 9.73533C47.0693 9.68482 47.0883 9.62897 47.1406 9.5823C47.1932 9.53541 47.3112 9.46971 47.5754 9.47008L47.5214 8.85687ZM46.4831 9.5732C46.4363 9.84544 46.4908 10.0877 46.5242 10.2718C46.5583 10.4599 46.5833 10.6345 46.544 10.8632L47.1216 11.0253C47.1795 10.6882 47.1385 10.4248 47.1001 10.2128C47.0609 9.99688 47.0363 9.87706 47.0607 9.73533L46.4831 9.5732ZM46.544 10.8632L46.2572 12.5329L46.8348 12.695L47.1216 11.0253L46.544 10.8632ZM46.2572 12.5329C46.2316 12.682 46.1558 12.8253 46.0506 13.0113C45.9566 13.1775 45.8262 13.3973 45.7839 13.6439L46.3615 13.806C46.3831 13.6801 46.4538 13.5513 46.5628 13.3587C46.6605 13.1858 46.7894 12.9599 46.8348 12.695L46.2572 12.5329ZM45.7839 13.6439C45.7428 13.8828 45.7621 14.1269 45.8866 14.3393C46.0136 14.556 46.2165 14.6828 46.4345 14.744L46.536 14.1526C46.4306 14.123 46.394 14.0813 46.379 14.0557C46.3614 14.0257 46.3361 13.9535 46.3615 13.806L45.7839 13.6439ZM46.4345 14.744L48.3752 15.2887L48.4768 14.6974L46.536 14.1526L46.4345 14.744ZM48.3752 15.2887C48.5932 15.3499 48.819 15.3435 49.0053 15.2147C49.188 15.0885 49.2855 14.8772 49.3265 14.6383L48.7489 14.4762C48.7236 14.6236 48.6769 14.6757 48.6512 14.6935C48.6292 14.7087 48.5823 14.727 48.4768 14.6974L48.3752 15.2887ZM49.3265 14.6383C49.3689 14.3917 49.3225 14.1223 49.2916 13.921C49.2571 13.6958 49.2352 13.525 49.2608 13.3759L48.6832 13.2138C48.6377 13.4787 48.6806 13.7528 48.7127 13.9622C48.7485 14.1954 48.7705 14.3502 48.7489 14.4762L49.3265 14.6383ZM49.2608 13.3759L49.5902 11.4579L49.0126 11.2957L48.6832 13.2138L49.2608 13.3759ZM49.4387 11.66C49.6785 11.5512 49.8569 11.5389 50.0012 11.5794L50.1028 10.988C49.7889 10.8999 49.4759 10.9522 49.1642 11.0936L49.4387 11.66ZM50.0012 11.5794C50.1314 11.616 50.2157 11.683 50.2665 11.7763C50.3213 11.877 50.3648 12.0594 50.3116 12.3691L50.8892 12.5312C50.9569 12.1372 50.9217 11.7912 50.7698 11.512C50.6139 11.2256 50.3635 11.0612 50.1028 10.988L50.0012 11.5794ZM50.3116 12.3691L50.0746 13.749L50.6522 13.9111L50.8892 12.5312L50.3116 12.3691ZM50.0746 13.749C49.996 14.2067 49.9948 14.7331 50.2294 15.2102C50.4721 15.7037 50.9338 16.0792 51.6519 16.2808L51.7534 15.6894C51.1642 15.524 50.8828 15.2498 50.746 14.9715C50.601 14.6767 50.5839 14.309 50.6522 13.9111L50.0746 13.749Z" fill="#2E2D2D"/>
<path d="M57.8495 18.7508C59.8272 19.6431 61.35 19.2366 61.8722 17.3762C62.3943 15.5159 61.4164 13.9812 59.4387 13.0889C57.461 12.1967 55.9381 12.6032 55.416 14.4636C54.8938 16.3239 55.8718 17.8586 57.8495 18.7508ZM57.9138 18.5217C57.1865 18.1936 57.3078 16.9421 57.7126 15.4997C58.1175 14.0572 58.8002 13.0591 59.3743 13.3181C59.9485 13.5771 59.9804 14.8977 59.5755 16.3401C59.1706 17.7825 58.6411 18.8498 57.9138 18.5217Z" fill="#B4E2BA"/>
<path d="M57.7684 19.0397C58.795 19.5029 59.7414 19.6466 60.5147 19.3982C61.2989 19.1463 61.8635 18.5044 62.1456 17.4996L61.5987 17.2529C61.3586 18.1084 60.9007 18.5999 60.2986 18.7933C59.6855 18.9902 58.8816 18.891 57.9305 18.462L57.7684 19.0397ZM62.1456 17.4996C62.4276 16.4948 62.3098 15.545 61.8273 14.7216C61.3516 13.9097 60.5464 13.2632 59.5197 12.8001L59.3576 13.3778C60.3086 13.8069 60.9813 14.3739 61.3584 15.0175C61.7288 15.6497 61.8389 16.3974 61.5987 17.2529L62.1456 17.4996ZM59.5197 12.8001C58.4931 12.3369 57.5468 12.1932 56.7735 12.4416C55.9892 12.6935 55.4246 13.3354 55.1426 14.3402L55.6894 14.5869C55.9295 13.7314 56.3874 13.2399 56.9895 13.0465C57.6026 12.8496 58.4065 12.9488 59.3576 13.3778L59.5197 12.8001ZM55.1426 14.3402C54.8605 15.345 54.9784 16.2948 55.4608 17.1182C55.9365 17.9301 56.7417 18.5766 57.7684 19.0397L57.9305 18.462C56.9795 18.0329 56.3069 17.4659 55.9297 16.8223C55.5593 16.1901 55.4493 15.4424 55.6894 14.5869L55.1426 14.3402ZM57.9949 18.2328C57.8911 18.186 57.8218 18.1123 57.7708 18.0002C57.7148 17.8771 57.6783 17.6993 57.6738 17.4583C57.6647 16.9744 57.7854 16.3378 57.9861 15.623L57.4392 15.3763C57.235 16.1041 57.0926 16.8143 57.1035 17.3988C57.109 17.6919 57.1532 17.9787 57.2664 18.2276C57.3846 18.4875 57.5728 18.6933 57.8327 18.8105L57.9949 18.2328ZM57.9861 15.623C58.1827 14.9223 58.4425 14.3473 58.7095 13.9852C58.8434 13.8035 58.9689 13.6896 59.0758 13.6332C59.1787 13.5789 59.2463 13.5858 59.2933 13.607L59.4554 13.0292C59.2153 12.9209 58.9822 12.9555 58.7831 13.0605C58.5878 13.1635 58.4096 13.3408 58.2505 13.5565C57.9314 13.9893 57.6474 14.6346 57.4392 15.3763L57.9861 15.623ZM59.2933 13.607C59.3402 13.6282 59.396 13.6769 59.4488 13.8015C59.5036 13.9308 59.5441 14.1195 59.5574 14.3677C59.5839 14.8622 59.4988 15.516 59.3021 16.2168L59.8489 16.4635C60.0571 15.7217 60.1585 14.9941 60.1267 14.403C60.1109 14.1083 60.0611 13.8282 59.9611 13.592C59.859 13.351 59.6956 13.1376 59.4554 13.0292L59.2933 13.607ZM59.3021 16.2168C59.1015 16.9315 58.8778 17.5217 58.6297 17.8895C58.5061 18.0728 58.3892 18.1814 58.2845 18.2319C58.1891 18.278 58.0986 18.2796 57.9949 18.2328L57.8327 18.8105C58.0926 18.9278 58.3411 18.919 58.5622 18.8122C58.7739 18.7099 58.9511 18.523 59.1014 18.3002C59.4011 17.8558 59.6446 17.1912 59.8489 16.4635L59.3021 16.2168Z" fill="#2E2D2D"/>
</svg>
