<svg width="318" height="285" viewBox="0 0 318 285" fill="none" xmlns="http://www.w3.org/2000/svg">
<rect width="302.985" height="248.888" rx="10" transform="matrix(0.998645 0.0520442 -0.0539164 0.998545 13.4191 19.9861)" fill="white"/>
<path d="M78.9359 102.545C78.9078 103.067 78.666 103.555 78.2637 103.904C77.8615 104.253 77.3317 104.433 76.791 104.404L73.3929 104.227L72.7915 115.364C72.7634 115.885 72.5216 116.374 72.1193 116.723C71.7171 117.071 71.1873 117.251 70.6466 117.223C70.1058 117.195 69.5984 116.961 69.2359 116.572C68.8735 116.184 68.6857 115.673 68.7138 115.151L69.3151 104.015L65.917 103.838C65.3763 103.81 64.8689 103.575 64.5064 103.187C64.1439 102.799 63.9561 102.287 63.9843 101.766C64.0124 101.245 64.2542 100.756 64.6565 100.408C65.0587 100.059 65.5885 99.879 66.1292 99.9072L77.0032 100.474C77.5439 100.502 78.0513 100.736 78.4138 101.125C78.7763 101.513 78.9641 102.024 78.9359 102.545ZM57.9738 99.4822C57.433 99.454 56.9033 99.634 56.501 99.9826C56.0987 100.331 55.857 100.82 55.8288 101.341L55.5812 105.927L50.1442 105.644L50.3918 101.058C50.42 100.537 50.2322 100.026 49.8697 99.6371C49.5072 99.2486 48.9998 99.0145 48.4591 98.9863C47.9183 98.9581 47.3886 99.1382 46.9863 99.4868C46.584 99.8354 46.3422 100.324 46.3141 100.845L45.6067 113.947C45.5785 114.468 45.7663 114.98 46.1288 115.368C46.4913 115.757 46.9987 115.991 47.5394 116.019C48.0802 116.047 48.6099 115.867 49.0122 115.518C49.4145 115.17 49.6563 114.681 49.6844 114.16L49.932 109.574L55.369 109.857L55.1214 114.443C55.0932 114.964 55.281 115.475 55.6435 115.864C56.006 116.252 56.5134 116.486 57.0541 116.515C57.5949 116.543 58.1246 116.363 58.5269 116.014C58.9292 115.666 59.171 115.177 59.1991 114.656L59.9065 101.554C59.9347 101.032 59.7469 100.521 59.3844 100.133C59.0219 99.7444 58.5145 99.5103 57.9738 99.4822ZM115.714 115.63L109.597 115.311L110.199 104.175C110.227 103.653 110.039 103.142 109.676 102.754C109.314 102.365 108.807 102.131 108.266 102.103C107.725 102.075 107.195 102.255 106.793 102.604C106.391 102.952 106.149 103.441 106.121 103.962L105.413 117.064C105.385 117.585 105.573 118.096 105.936 118.485C106.298 118.873 106.805 119.107 107.346 119.136L115.502 119.561C116.042 119.589 116.572 119.409 116.974 119.06C117.377 118.711 117.618 118.223 117.647 117.702C117.675 117.18 117.487 116.669 117.124 116.281C116.762 115.892 116.255 115.658 115.714 115.63ZM99.3574 101.737C98.9545 101.589 98.5134 101.567 98.0974 101.676C97.6815 101.784 97.312 102.016 97.0418 102.339L91.5357 109.016L86.7795 101.805C86.5475 101.45 86.2044 101.176 85.7999 101.022C85.3955 100.868 84.9509 100.842 84.5309 100.948C84.1108 101.055 83.7371 101.287 83.4643 101.613C83.1914 101.938 83.0335 102.34 83.0137 102.758L82.3062 115.86C82.2781 116.381 82.4659 116.892 82.8284 117.281C83.1908 117.669 83.6982 117.903 84.239 117.931C84.7797 117.96 85.3095 117.78 85.7118 117.431C86.114 117.082 86.3558 116.594 86.384 116.072L86.7607 109.096L89.6266 113.449C89.8059 113.71 90.0459 113.927 90.3275 114.082C90.609 114.238 90.9243 114.327 91.248 114.344C91.5717 114.361 91.8949 114.305 92.1916 114.179C92.4883 114.054 92.7504 113.863 92.9567 113.623L96.2754 109.591L95.8987 116.568C95.8705 117.089 96.0583 117.6 96.4208 117.989C96.7833 118.377 97.2907 118.612 97.8314 118.64C98.3722 118.668 98.9019 118.488 99.3042 118.139C99.7065 117.791 99.9483 117.302 99.9764 116.781L100.684 103.679C100.705 103.262 100.587 102.849 100.349 102.5C100.11 102.151 99.7633 101.884 99.3574 101.737ZM107.402 92.861C106.861 92.8328 106.354 92.5987 105.991 92.2102C105.629 91.8217 105.441 91.3106 105.469 90.7894L106.212 77.0324L89.2213 76.147C88.6805 76.1188 88.1731 75.8847 87.8107 75.4962C87.4482 75.1077 87.2604 74.5967 87.2885 74.0754L88.1728 57.6981L57.5898 56.1042C57.4096 56.0948 57.233 56.1549 57.0989 56.2711C56.9648 56.3873 56.8842 56.5502 56.8748 56.7239L55.177 88.1685C55.1489 88.6897 54.9071 89.1784 54.5048 89.527C54.1025 89.8756 53.5728 90.0557 53.032 90.0275C52.4913 89.9993 51.9839 89.7652 51.6214 89.3767C51.2589 88.9883 51.0711 88.4772 51.0993 87.956L52.7971 56.5114C52.8628 55.2952 53.427 54.1549 54.3656 53.3415C55.3042 52.528 56.5403 52.1079 57.8021 52.1737L90.4239 53.8738C90.6916 53.8837 90.9543 53.948 91.1947 54.0624C91.4352 54.1768 91.648 54.3388 91.8193 54.5377L109.86 73.8393C110.044 74.033 110.187 74.2602 110.279 74.5076C110.371 74.755 110.411 75.0175 110.396 75.2797L109.547 91.0019C109.519 91.5232 109.277 92.0118 108.875 92.3605C108.472 92.7091 107.942 92.8891 107.402 92.861ZM91.4724 72.3227L103.536 72.9513L92.1002 60.6947L91.4724 72.3227Z" fill="#5A5A5A"/>
<path d="M268.094 83.6471C268.109 83.385 268.069 83.1224 267.977 82.8751C267.885 82.6277 267.743 82.4005 267.558 82.2068L249.518 62.9052C249.346 62.7063 249.133 62.5443 248.893 62.4299C248.653 62.3155 248.39 62.2512 248.122 62.2412L215.5 60.5411C214.239 60.4754 213.003 60.8955 212.064 61.7089C211.125 62.5224 210.561 63.6627 210.495 64.8789L208.939 93.7031C208.911 94.2243 209.099 94.7354 209.461 95.1238C209.824 95.5123 210.331 95.7464 210.872 95.7746C211.413 95.8028 211.942 95.6227 212.345 95.2741C212.747 94.9255 212.989 94.4368 213.017 93.9156L214.573 65.0914C214.583 64.9177 214.663 64.7548 214.797 64.6385C214.931 64.5223 215.108 64.4623 215.288 64.4717L245.871 66.0655L244.987 82.4429C244.959 82.9641 245.146 83.4752 245.509 83.8637C245.871 84.2522 246.379 84.4863 246.92 84.5145L263.91 85.3999L263.309 96.5365C263.281 97.0578 263.468 97.5688 263.831 97.9573C264.193 98.3458 264.701 98.5799 265.242 98.6081C265.782 98.6363 266.312 98.4562 266.714 98.1076C267.117 97.759 267.358 97.2703 267.387 96.749L268.094 83.6471ZM249.799 69.0622L261.234 81.3188L249.171 80.6901L249.799 69.0622ZM210.526 114.808C210.351 118.05 212.654 120.831 215.644 120.987C216.902 121.042 218.135 120.651 219.111 119.887C219.317 119.718 219.556 119.591 219.814 119.513C220.072 119.436 220.344 119.41 220.613 119.436C220.882 119.462 221.143 119.541 221.38 119.666C221.617 119.792 221.826 119.963 221.993 120.168C222.162 120.371 222.287 120.603 222.363 120.853C222.438 121.102 222.462 121.363 222.432 121.621C222.402 121.879 222.32 122.129 222.189 122.356C222.059 122.583 221.883 122.782 221.672 122.943C219.919 124.324 217.695 125.027 215.432 124.918C210.199 124.645 206.156 120 206.448 114.595C206.74 109.191 211.26 104.992 216.493 105.265C218.756 105.391 220.891 106.321 222.486 107.876C222.678 108.058 222.832 108.275 222.937 108.514C223.042 108.754 223.097 109.01 223.099 109.27C223.101 109.53 223.049 109.787 222.947 110.027C222.845 110.267 222.695 110.485 222.506 110.669C222.317 110.856 222.092 111.004 221.842 111.105C221.593 111.205 221.325 111.256 221.055 111.254C220.784 111.252 220.517 111.198 220.269 111.094C220.02 110.99 219.796 110.839 219.61 110.65C218.722 109.789 217.537 109.271 216.281 109.195C213.291 109.039 210.701 111.565 210.526 114.808ZM244.294 120.509C244.084 124.407 241.036 126.58 236.143 126.325C233.827 126.225 231.614 125.369 229.868 123.896C229.637 123.732 229.446 123.522 229.305 123.282C229.164 123.041 229.077 122.775 229.049 122.5C229.022 122.226 229.055 121.948 229.146 121.687C229.237 121.426 229.384 121.185 229.577 120.983C229.771 120.78 230.007 120.618 230.269 120.509C230.532 120.4 230.815 120.345 231.102 120.348C231.388 120.351 231.67 120.413 231.931 120.528C232.191 120.643 232.423 120.81 232.613 121.017C233.69 121.827 234.993 122.307 236.355 122.395C240.093 122.59 240.176 121.05 240.217 120.297C240.257 119.543 239.239 118.833 236.292 117.891C233.344 116.949 229.555 115.799 229.767 111.869C229.98 107.938 233.026 105.798 237.239 106.017C239.555 106.117 241.768 106.974 243.515 108.447C243.848 108.812 244.03 109.283 244.025 109.769C244.02 110.255 243.829 110.722 243.488 111.079C243.147 111.437 242.68 111.66 242.179 111.705C241.677 111.751 241.175 111.615 240.769 111.325C239.696 110.51 238.39 110.029 237.027 109.948C235.872 109.888 233.953 110.083 233.845 112.081C233.803 112.868 234.935 113.354 237.55 114.147C240.165 114.94 244.519 116.349 244.294 120.509ZM266.042 121.643C265.832 125.54 262.784 127.714 257.891 127.459C255.575 127.359 253.362 126.502 251.615 125.029C251.385 124.865 251.194 124.656 251.053 124.415C250.912 124.175 250.825 123.908 250.797 123.634C250.77 123.359 250.803 123.082 250.894 122.82C250.985 122.559 251.132 122.319 251.325 122.116C251.519 121.913 251.754 121.752 252.017 121.642C252.28 121.533 252.563 121.478 252.85 121.481C253.136 121.485 253.418 121.546 253.679 121.661C253.939 121.777 254.171 121.943 254.361 122.151C255.437 122.961 256.741 123.441 258.103 123.528C261.841 123.723 261.924 122.183 261.965 121.43C262.005 120.677 260.987 119.967 258.039 119.025C255.092 118.083 251.303 116.933 251.515 113.002C251.727 109.072 254.774 106.931 258.987 107.151C261.303 107.251 263.516 108.108 265.262 109.58C265.596 109.945 265.778 110.416 265.773 110.902C265.768 111.388 265.576 111.855 265.236 112.212C264.895 112.57 264.428 112.793 263.926 112.838C263.425 112.884 262.923 112.749 262.517 112.459C261.444 111.643 260.138 111.163 258.775 111.081C257.62 111.021 255.701 111.217 255.593 113.215C255.55 114.001 256.683 114.487 259.298 115.28C261.913 116.073 266.267 117.483 266.042 121.643Z" fill="#5A5A5A"/>
<path d="M137.207 148.65C137.327 146.427 138.369 144.342 140.103 142.855C141.838 141.369 144.122 140.602 146.455 140.724L166.621 141.775C168.37 141.867 170.011 142.618 171.183 143.862L187.513 161.169C188.685 162.413 189.293 164.047 189.203 165.714L187.259 201.712C187.139 203.936 186.098 206.02 184.363 207.507C182.629 208.993 180.344 209.76 178.012 209.639L153.826 208.378C154.855 207.213 155.618 205.823 156.031 204.289L178.238 205.446C179.404 205.507 180.547 205.123 181.414 204.38C182.281 203.637 182.802 202.595 182.862 201.483L184.673 167.942L169.282 167.14C167.533 167.049 165.891 166.298 164.718 165.055C163.544 163.811 162.936 162.175 163.026 160.507L163.818 145.833L146.229 144.916C145.062 144.855 143.92 145.239 143.053 145.982C142.186 146.725 141.665 147.768 141.605 148.88L139.907 180.324C139.537 180.561 139.175 180.82 138.842 181.101C138.114 179.867 136.974 178.9 135.603 178.355L137.207 148.65ZM169.509 162.947L183.989 163.702L168.169 146.93L167.423 160.736C167.393 161.292 167.596 161.837 167.987 162.252C168.378 162.667 168.925 162.917 169.509 162.947ZM133.198 182.077C132.615 182.046 132.043 182.238 131.61 182.61C131.176 182.981 130.916 183.502 130.886 184.058L129.98 200.829C129.95 201.385 129.69 201.906 129.256 202.278C128.823 202.649 128.252 202.841 127.668 202.811C127.085 202.78 126.538 202.53 126.147 202.116C125.756 201.701 125.553 201.156 125.583 200.6L125.696 198.503C125.726 197.947 125.523 197.402 125.132 196.988C124.741 196.573 124.194 196.323 123.611 196.293C123.027 196.262 122.456 196.454 122.023 196.825C121.589 197.197 121.329 197.718 121.299 198.274L121.186 200.371C121.095 202.038 121.704 203.674 122.877 204.918C124.051 206.162 125.693 206.912 127.442 207.003C129.191 207.094 130.905 206.519 132.206 205.404C133.506 204.289 134.288 202.726 134.378 201.058L135.283 184.288C135.313 183.732 135.11 183.186 134.719 182.772C134.328 182.357 133.781 182.107 133.198 182.077ZM139.454 188.709C139.544 187.041 140.326 185.478 141.626 184.363C142.927 183.248 144.64 182.673 146.39 182.764C148.139 182.855 149.781 183.605 150.954 184.849C152.128 186.093 152.736 187.729 152.646 189.397C152.616 189.953 152.356 190.474 151.922 190.846C151.489 191.217 150.918 191.409 150.334 191.379C149.751 191.348 149.204 191.098 148.813 190.684C148.422 190.269 148.219 189.724 148.249 189.168C148.279 188.612 148.076 188.066 147.685 187.652C147.294 187.237 146.747 186.987 146.163 186.957C145.58 186.926 145.009 187.118 144.576 187.49C144.142 187.861 143.882 188.383 143.852 188.939L143.765 190.54C143.744 190.929 143.837 191.316 144.033 191.659C144.23 192.001 144.522 192.284 144.878 192.478L148.712 194.557C149.78 195.136 150.658 195.988 151.248 197.015C151.838 198.042 152.117 199.205 152.054 200.373L151.967 201.975C151.877 203.643 151.096 205.206 149.795 206.321C148.494 207.436 146.781 208.011 145.032 207.92C143.282 207.829 141.64 207.079 140.467 205.835C139.294 204.591 138.685 202.955 138.775 201.287C138.805 200.731 139.065 200.21 139.499 199.838C139.933 199.467 140.504 199.275 141.087 199.306C141.67 199.336 142.217 199.586 142.608 200.001C143 200.415 143.202 200.96 143.172 201.516C143.142 202.072 143.345 202.618 143.736 203.032C144.127 203.447 144.675 203.697 145.258 203.727C145.841 203.758 146.412 203.566 146.846 203.194C147.279 202.823 147.54 202.302 147.57 201.746L147.656 200.144C147.677 199.755 147.584 199.368 147.388 199.026C147.191 198.683 146.899 198.4 146.544 198.207L142.709 196.127C141.642 195.548 140.764 194.697 140.173 193.669C139.583 192.642 139.304 191.479 139.368 190.311L139.454 188.709Z" fill="#5A5A5A"/>
<path d="M61.8722 18.2493L61.872 18.2495L56.1075 23.7028L50.3431 29.1561C50.234 29.2591 50.1012 29.3341 49.9562 29.3742C49.8112 29.4143 49.6585 29.4183 49.5115 29.386C49.3646 29.3536 49.2279 29.2858 49.1134 29.1886C48.999 29.0915 48.9103 28.9679 48.8549 28.8288L48.8548 28.8286L45.8526 21.2939C45.8526 21.2938 45.8526 21.2937 45.8525 21.2937C45.7594 21.0596 45.6209 20.8462 45.4451 20.6656C45.2693 20.485 45.0596 20.3408 44.828 20.2412L40.3243 18.3039C40.1845 18.2437 40.062 18.1499 39.9676 18.031C39.8732 17.9121 39.81 17.7719 39.7834 17.6228C39.7568 17.4737 39.7677 17.3203 39.8151 17.1764C39.8625 17.0326 39.945 16.9025 40.0552 16.7981L50.0453 7.34729C50.1557 7.24297 50.2904 7.16752 50.4374 7.12779C50.5845 7.08807 50.7391 7.08535 50.8875 7.11988C51.0358 7.15441 51.1731 7.2251 51.2872 7.3255C51.4013 7.42588 51.4885 7.55281 51.5411 7.69487C51.5411 7.6949 51.5412 7.69493 51.5412 7.69496L53.2412 12.2845C53.3287 12.5209 53.462 12.7376 53.6335 12.9224C53.8049 13.1071 54.011 13.2562 54.2401 13.3613C54.2401 13.3614 54.2402 13.3614 54.2403 13.3614L61.6227 16.7524L61.6229 16.7525C61.7596 16.8152 61.8786 16.9103 61.9698 17.0294C62.0609 17.1484 62.1213 17.2879 62.1458 17.4355C62.1703 17.5831 62.1582 17.7344 62.1105 17.8763C62.0628 18.018 61.981 18.1461 61.8722 18.2493Z" fill="#B3B0F8" stroke="#B3B0F8"/>
<path d="M63.3597 31.3344L56.4511 24.0659ZM56.4511 24.0659L62.2158 18.6124C62.3841 18.453 62.5107 18.2549 62.5844 18.0355C62.6582 17.816 62.677 17.5818 62.6391 17.3535C62.6011 17.1251 62.5077 16.9095 62.3669 16.7255C62.2261 16.5415 62.0423 16.3947 61.8315 16.298L54.4489 12.9069C54.2793 12.8292 54.1268 12.7188 54.0001 12.5822C53.8733 12.4456 53.7748 12.2854 53.7101 12.1108L52.01 7.52111C51.9286 7.30134 51.7938 7.10517 51.6176 6.95015C51.4415 6.79514 51.2296 6.68613 51.0009 6.63289C50.7722 6.57965 50.5338 6.58385 50.3071 6.6451C50.0804 6.70635 49.8725 6.82274 49.7019 6.98385L39.7114 16.4351C39.541 16.5965 39.4135 16.7974 39.3402 17.02C39.2668 17.2426 39.25 17.4799 39.2911 17.7106C39.3323 17.9413 39.4301 18.1582 39.5759 18.3419C39.7217 18.5255 39.9109 18.6703 40.1266 18.7631L44.6303 20.7005C44.8017 20.7742 44.9568 20.8808 45.0868 21.0144C45.2168 21.1479 45.3192 21.3057 45.388 21.4787L48.3903 29.0136C48.4759 29.2288 48.6131 29.4197 48.7897 29.5697C48.9664 29.7198 49.1773 29.8243 49.4039 29.8742C49.6304 29.9241 49.8658 29.9179 50.0894 29.856C50.313 29.7942 50.518 29.6786 50.6865 29.5194L56.4511 24.0659Z" fill="#B3B0F8"/>
<path d="M63.3597 31.3344L56.4511 24.0659M56.4511 24.0659L62.2158 18.6124C62.3841 18.453 62.5107 18.2549 62.5844 18.0355C62.6582 17.816 62.677 17.5818 62.6391 17.3535C62.6011 17.1251 62.5077 16.9095 62.3669 16.7255C62.2261 16.5415 62.0423 16.3947 61.8315 16.298L54.4489 12.9069C54.2793 12.8292 54.1268 12.7188 54.0001 12.5822C53.8733 12.4456 53.7748 12.2854 53.7101 12.1108L52.01 7.52111C51.9286 7.30134 51.7938 7.10517 51.6176 6.95015C51.4415 6.79514 51.2296 6.68613 51.0009 6.63289C50.7722 6.57965 50.5338 6.58385 50.3071 6.6451C50.0804 6.70635 49.8725 6.82274 49.7019 6.98385L39.7114 16.4351C39.541 16.5965 39.4135 16.7974 39.3402 17.02C39.2668 17.2426 39.25 17.4799 39.2911 17.7106C39.3323 17.9413 39.4301 18.1582 39.5759 18.3419C39.7217 18.5255 39.9109 18.6703 40.1266 18.7631L44.6303 20.7005C44.8017 20.7742 44.9568 20.8808 45.0868 21.0144C45.2168 21.1479 45.3192 21.3057 45.388 21.4787L48.3903 29.0136C48.4759 29.2288 48.6131 29.4197 48.7897 29.5697C48.9664 29.7198 49.1773 29.8243 49.4039 29.8742C49.6304 29.9241 49.8658 29.9179 50.0894 29.856C50.313 29.7942 50.518 29.6786 50.6865 29.5194L56.4511 24.0659Z" stroke="#B3B0F8" stroke-width="2" stroke-linecap="round" stroke-linejoin="round"/>
</svg>
