<svg width="335" height="284" viewBox="0 0 335 284" fill="none" xmlns="http://www.w3.org/2000/svg">
<rect width="302.953" height="238.353" rx="10" transform="matrix(0.99571 -0.0925238 0.0958316 0.995398 1.95245 46.1732)" fill="white"/>
<g clip-path="url(#clip0_32_178)">
<path d="M210.508 173.902C209.998 168.599 203.03 164.175 192.789 161.983C194.086 151.394 192.272 143.23 187.523 141.003C186.374 140.479 185.112 140.279 183.867 140.424L184.217 144.059C184.95 143.991 185.553 144.086 186.075 144.317C188.363 145.39 189.77 150.146 189.638 156.448C189.61 157.998 189.479 159.639 189.286 161.32C185.877 160.807 182.442 160.527 179.001 160.482C176.695 157.803 174.219 155.283 171.589 152.939C176.307 147.513 180.92 144.352 184.235 144.044L183.885 140.405C179.502 140.812 174.076 144.544 168.81 150.63C162.484 145.658 156.441 143.023 152.062 143.429L152.412 147.065C155.71 146.759 160.861 148.999 166.527 153.426C164.528 156.035 162.559 158.964 160.73 162.179C157.351 162.855 154.024 163.769 150.773 164.915C150.27 163.386 149.841 161.834 149.487 160.263C148.137 154.095 148.596 149.166 150.624 147.679C151.072 147.341 151.681 147.15 152.413 147.082L152.063 143.446C150.728 143.57 149.542 143.977 148.553 144.691C144.33 147.752 144.12 156.084 147.425 166.216C137.818 170.272 131.85 175.878 132.359 181.164C132.869 186.467 139.836 190.891 150.077 193.08C148.781 203.673 150.595 211.836 155.343 214.061C156.438 214.585 157.678 214.766 159.013 214.642C163.396 214.234 168.822 210.503 174.087 204.417C180.414 209.392 186.453 212.025 190.836 211.617C192.096 211.528 193.307 211.097 194.346 210.369C198.569 207.311 198.779 198.98 195.474 188.848C205.05 184.815 211.017 179.189 210.508 173.902ZM188.718 164.946C188.309 167.185 187.799 169.402 187.189 171.59C185.603 169.061 183.893 166.615 182.065 164.262C184.361 164.395 186.584 164.616 188.721 164.946L188.718 164.946ZM183.097 183.002C182.11 185.245 181.029 187.444 179.858 189.592C175.121 190.468 170.314 190.92 165.493 190.944C162.365 187.187 159.558 183.162 157.104 178.915C158.7 174.281 160.678 169.797 163.015 165.511C167.752 164.634 172.557 164.181 177.377 164.156C178.885 165.974 180.378 167.929 181.829 170.002C183.246 172.024 184.555 174.089 185.769 176.184C184.968 178.493 184.077 180.767 183.097 183.002V183.002ZM188.038 180.402C189.108 182.507 190.054 184.627 190.861 186.692C188.827 187.409 186.669 188.054 184.425 188.606C185.762 185.935 186.968 183.197 188.038 180.402V180.402ZM173.563 199.314C171.931 197.884 170.281 196.277 168.632 194.502C170.071 194.436 171.541 194.349 173.023 194.212C174.521 194.073 175.999 193.902 177.44 193.684C176.191 195.728 174.878 197.61 173.563 199.314ZM160.785 190.802C158.558 190.681 156.337 190.454 154.129 190.122C154.516 187.963 155.039 185.723 155.658 183.478C156.438 184.718 157.25 185.962 158.125 187.2C159 188.434 159.884 189.638 160.785 190.802ZM169.287 155.754C170.92 157.184 172.569 158.791 174.219 160.566C172.78 160.632 171.309 160.719 169.828 160.856C168.33 160.995 166.852 161.166 165.411 161.384C166.659 159.34 167.973 157.458 169.287 155.754ZM158.425 166.462C157.088 169.127 155.882 171.859 154.811 174.649C153.77 172.6 152.828 170.501 151.988 168.359C154.023 167.659 156.182 167.014 158.425 166.462ZM145.976 188.228C140.1 186.29 136.142 183.397 135.895 180.836C135.648 178.274 138.983 174.686 144.387 171.717C145.696 170.987 147.142 170.307 148.64 169.66C149.857 172.771 151.372 175.988 153.179 179.263C152.092 182.602 151.23 186.015 150.598 189.478C149.039 189.138 147.497 188.721 145.976 188.228V188.228ZM156.791 210.746C154.504 209.68 153.096 204.917 153.229 198.619C153.257 197.068 153.388 195.424 153.581 193.743C156.776 194.237 160.243 194.524 163.866 194.585C166.171 197.264 168.648 199.783 171.278 202.127C166.56 207.553 161.946 210.714 158.632 211.022C158.007 211.088 157.375 210.994 156.792 210.749L156.791 210.746ZM193.38 194.804C194.729 200.968 194.271 205.9 192.242 207.388C191.795 207.725 191.186 207.913 190.453 207.981C187.155 208.288 182.005 206.051 176.338 201.62C178.466 198.845 180.403 195.921 182.135 192.87C185.514 192.195 188.841 191.281 192.093 190.135C192.619 191.748 193.055 193.303 193.38 194.804V194.804ZM198.464 183.35C197.154 184.081 195.708 184.761 194.21 185.408C192.91 182.108 191.394 178.899 189.672 175.805C190.81 172.277 191.667 168.855 192.253 165.59C193.817 165.931 195.364 166.347 196.89 166.839C202.767 168.776 206.725 171.669 206.972 174.231C207.202 176.794 203.868 180.382 198.464 183.35V183.35Z" fill="#5A5A5A"/>
<path d="M172.135 184.993C174.066 184.813 175.842 183.855 177.073 182.33C178.304 180.804 178.888 178.836 178.698 176.858C178.508 174.88 177.558 173.054 176.058 171.783C174.558 170.511 172.63 169.897 170.699 170.077C168.768 170.256 166.992 171.214 165.761 172.74C164.53 174.265 163.946 176.233 164.136 178.211C164.327 180.189 165.276 182.015 166.776 183.287C168.277 184.558 170.204 185.172 172.135 184.993V184.993Z" fill="#5A5A5A"/>
</g>
<g clip-path="url(#clip1_32_178)">
<path d="M238.269 73.2052L223.694 74.5596L220.81 44.6043L235.385 43.2499C243.251 42.519 250.296 48.642 251.091 56.9005C251.886 65.1589 246.135 72.4743 238.269 73.2052V73.2052ZM227.895 69.219L237.797 68.2988C243.086 67.8073 246.953 62.8882 246.418 57.338C245.884 51.7879 241.144 47.6684 235.858 48.1597L225.956 49.0798L227.895 69.219V69.219ZM228.367 74.1253L213.795 75.4794C205.929 76.2103 198.885 70.0873 198.089 61.8289C197.294 53.5704 203.045 46.255 210.911 45.5241L225.486 44.1698L228.37 74.125L228.367 74.1253ZM211.384 50.4305C206.094 50.922 202.228 55.8412 202.762 61.3913C203.297 66.9414 208.033 71.0645 213.323 70.573L223.225 69.6529L221.286 49.5104L211.384 50.4305ZM230.778 99.1709L216.206 100.525C208.341 101.256 201.296 95.1329 200.501 86.8744C199.706 78.616 205.457 71.3039 213.323 70.573L227.898 69.2187L230.782 99.1706L230.778 99.1709ZM213.795 75.4794C208.506 75.9709 204.639 80.8901 205.174 86.4402C205.708 91.9903 210.448 96.1098 215.734 95.6186L225.636 94.6985L223.697 74.5593L213.795 75.4794ZM218.694 125.567C210.787 126.302 203.704 120.182 202.909 111.924C202.114 103.665 207.865 96.3531 215.731 95.6222L230.306 94.2679L231.732 109.08C232.536 117.429 226.687 124.824 218.694 125.567V125.567ZM216.206 100.525C213.664 100.765 211.329 102.053 209.713 104.108C208.097 106.163 207.331 108.816 207.585 111.486C208.12 117.039 212.891 121.152 218.225 120.657C223.641 120.153 227.609 115.154 227.065 109.511L226.112 99.6045L216.206 100.525V100.525ZM240.681 98.2508L240.369 98.2797C232.503 99.0106 225.459 92.8876 224.664 84.6292C223.868 76.3707 229.62 69.0587 237.486 68.3278L237.797 68.2988C245.663 67.5679 252.707 73.6909 253.503 81.9494C254.298 90.2078 248.546 97.5199 240.681 98.2508V98.2508ZM237.961 73.2338C232.672 73.7254 228.805 78.6445 229.34 84.1946C229.874 89.7448 234.614 93.8642 239.9 93.373L240.211 93.3441C245.501 92.8526 249.367 87.9334 248.833 82.3833C248.298 76.8332 243.559 72.7137 238.272 73.2049L237.961 73.2338V73.2338Z" fill="#5A5A5A"/>
</g>
<g clip-path="url(#clip2_32_178)">
<path d="M97.9798 127.319C97.6577 127.349 97.3266 127.285 97.0201 127.156L93.9036 125.647C93.4347 125.438 93.6404 125.325 93.7893 125.263C94.3526 125.006 94.4708 124.948 95.0635 124.514C95.1218 124.477 95.2154 124.484 95.2797 124.51L97.6822 125.675C97.7634 125.714 97.8861 125.703 97.9583 125.649L106.321 119.603C106.393 119.549 106.445 119.45 106.435 119.34L105.431 108.912C105.42 108.802 105.365 108.713 105.269 108.675L95.9022 104.292C95.821 104.252 95.7136 104.262 95.6261 104.318L87.262 110.348C87.1744 110.403 87.139 110.517 87.148 110.611L88.152 121.039C88.161 121.133 88.2314 121.221 88.3126 121.261L90.873 122.458C92.2568 123.008 92.9929 122.135 92.9177 121.353L91.9257 111.05C91.9122 110.91 92.0075 110.774 92.1609 110.76L93.2806 110.656C93.4186 110.643 93.5518 110.741 93.5669 110.898L94.5588 121.201C94.7319 122.999 93.8788 124.104 92.207 124.259C91.7008 124.306 91.2867 124.344 90.1128 123.886L87.6505 122.742C87.0499 122.451 86.6216 121.86 86.5568 121.187L85.5528 110.759C85.4881 110.087 85.7792 109.413 86.3304 109.03L94.693 102.985C95.2289 102.604 95.9652 102.535 96.5489 102.812L105.917 107.21C106.518 107.502 106.946 108.093 107.011 108.765L108.015 119.193C108.079 119.866 107.788 120.54 107.237 120.922L98.8745 126.968C98.6303 127.164 98.3173 127.288 97.9798 127.319V127.319ZM104.152 116.366C103.964 114.412 102.626 114.015 99.8597 113.894C97.0628 113.775 96.7686 113.613 96.7054 112.956C96.6527 112.409 96.8135 111.669 98.8535 111.479C100.679 111.31 101.393 111.653 101.789 112.878C101.832 113.001 101.932 113.07 102.054 113.059L103.205 112.952C103.281 112.945 103.34 112.908 103.381 112.857C103.421 112.79 103.446 112.725 103.423 112.648C103.031 110.507 101.539 109.636 98.7015 109.9C96.1707 110.135 94.7729 111.369 94.9475 113.183C95.1387 115.169 96.693 115.56 99.1405 115.585C102.068 115.613 102.339 116.014 102.394 116.592C102.492 117.609 101.735 118.105 99.8641 118.279C97.5173 118.497 96.9386 117.951 96.6555 116.779C96.6281 116.655 96.5118 116.571 96.3737 116.584L95.2234 116.691C95.0853 116.704 94.9731 116.824 94.9882 116.981C95.1342 118.497 96.1217 120.235 100.002 119.875C102.84 119.611 104.342 118.336 104.152 116.366V116.366ZM111.757 107.756C111.849 108.71 111.158 109.563 110.222 109.65C109.286 109.737 108.444 109.026 108.352 108.073C108.257 107.088 108.983 106.263 109.888 106.179C110.807 106.078 111.663 106.771 111.757 107.756ZM111.481 107.782C111.403 106.969 110.697 106.388 109.899 106.462C109.117 106.534 108.535 107.235 108.613 108.048C108.691 108.861 109.399 109.458 110.181 109.385C110.977 109.296 111.558 108.579 111.481 107.782ZM110.884 108.815L110.486 108.852C110.461 108.76 110.352 108.265 110.35 108.25C110.309 108.143 110.272 108.083 110.134 108.096L109.797 108.128L109.872 108.909L109.504 108.944L109.316 106.989L109.975 106.928C110.205 106.907 110.65 106.865 110.7 107.381C110.734 107.741 110.512 107.84 110.378 107.9C110.641 107.891 110.673 108.062 110.743 108.308C110.773 108.463 110.829 108.726 110.884 108.815V108.815ZM110.322 107.479C110.297 107.214 110.113 107.231 110.021 107.239L109.714 107.268L109.767 107.815L110.058 107.788C110.304 107.765 110.333 107.589 110.322 107.479V107.479ZM66.5961 89.0637C66.5555 88.6416 66.3046 88.2863 65.9323 88.1158L55.9987 83.4705C55.8363 83.3909 55.6478 83.3611 55.4622 83.3626L55.3702 83.3711C55.1861 83.3882 55.0234 83.4664 54.8637 83.5759L46.0082 89.9672C45.675 90.2033 45.4979 90.6141 45.537 91.0206L46.9823 105.872C47.0019 106.075 47.1273 106.253 47.3066 106.347C47.4858 106.441 47.7006 106.421 47.8741 106.294L53.1425 102.508C53.4742 102.256 53.6528 101.861 53.6137 101.454L52.9454 94.5124C52.9063 94.1059 53.0834 93.6951 53.4166 93.4591L55.66 91.8467C55.8335 91.7201 56.013 91.6561 56.2124 91.6376C56.4118 91.6191 56.6157 91.6475 56.795 91.7412L59.3064 92.9118C59.6787 93.0823 59.9311 93.4532 59.9702 93.8597L60.6385 100.801C60.6777 101.208 60.93 101.579 61.3024 101.749L67.2 104.498C67.3792 104.592 67.6093 104.571 67.7675 104.446C67.9272 104.336 68.015 104.123 67.9954 103.92L66.5961 89.0637ZM116.448 68.0731L119.103 95.6527C119.143 96.0592 118.965 96.4701 118.632 96.7061L109.763 103.114C109.43 103.35 109 103.39 108.628 103.22L98.6929 98.5589C98.3205 98.3884 98.0682 98.0175 98.029 97.611L96.9633 86.5416C96.9242 86.1351 97.1013 85.7243 97.4345 85.4883L106.304 79.0799C106.637 78.8439 107.067 78.804 107.439 78.9745L109.918 80.1323C110.194 80.2644 110.512 80.0298 110.483 79.7327L109.068 65.0361C109.026 64.5983 109.459 64.2741 109.864 64.4574L115.769 67.1266C116.14 67.2815 116.408 67.651 116.448 68.0731V68.0731ZM111.333 88.8819C111.322 88.7724 111.252 88.6843 111.171 88.6445L107.766 87.0364C107.67 86.998 107.562 87.008 107.475 87.0635L104.437 89.2702C104.35 89.3257 104.313 89.4238 104.324 89.5332L104.689 93.3324C104.7 93.4419 104.77 93.53 104.851 93.5698L108.255 95.1623C108.351 95.2006 108.458 95.1906 108.531 95.1366L111.569 92.9455C111.657 92.8901 111.694 92.792 111.683 92.6825L111.318 88.8833L111.333 88.8819ZM143.502 85.7823C143.835 85.5462 144.012 85.1354 143.973 84.7289L143.715 82.0554C143.676 81.6489 143.424 81.2779 143.052 81.1075L133.178 76.4408C132.806 76.2703 132.376 76.3102 132.043 76.5462L123.173 82.9546C122.84 83.1906 122.663 83.6014 122.702 84.0079L123.768 95.0773C123.809 95.4995 124.06 95.8547 124.432 96.0252L134.295 100.582C134.652 100.754 135.081 100.714 135.415 100.478L140.751 96.7488C141.113 96.4943 141.059 95.9315 140.654 95.7482L130.658 91.0929C130.463 91.0006 130.338 90.8229 130.318 90.6197L129.984 87.1488C129.964 86.9455 130.054 86.7479 130.227 86.6214L133.005 84.6123C133.163 84.4872 133.393 84.4658 133.573 84.5595L136.685 86.0213C136.864 86.1151 137.005 86.2913 137.024 86.4946L137.286 89.215C137.328 89.6528 137.831 89.89 138.193 89.6355L143.502 85.7823V85.7823ZM131.698 87.4312C131.641 87.4838 131.601 87.5506 131.609 87.6288L131.813 89.7551C131.821 89.8333 131.874 89.9072 131.939 89.9327L133.851 90.8277C133.917 90.8689 134.009 90.8604 134.066 90.8078L135.773 89.5764C135.83 89.5238 135.87 89.457 135.863 89.3788L135.658 87.2525C135.65 87.1743 135.597 87.1004 135.533 87.0749L133.62 86.1799C133.554 86.1387 133.462 86.1472 133.406 86.1998L131.698 87.4312ZM93.3635 97.8553L92.3039 86.8484C92.2647 86.4419 91.9817 86.0739 91.6093 85.9034L81.708 81.2708C81.3678 81.1131 80.92 81.1232 80.573 81.3763L71.7313 87.7505C71.3981 87.9865 71.1888 88.3846 71.2294 88.8067L72.2891 99.8135C72.3313 100.251 72.6588 100.599 72.999 100.757L82.9157 105.388C83.3049 105.573 83.7328 105.517 84.0507 105.283L92.877 98.91C93.1381 98.728 93.3119 98.4437 93.3585 98.1239C93.3663 98.0443 93.3726 97.9491 93.3635 97.8553ZM80.0874 79.3865L79.9722 79.476L80.1409 79.4604L80.0874 79.3865V79.3865ZM93.7347 98.6568L93.6629 98.5531L93.6764 98.6938L93.7347 98.6568Z" fill="#5A5A5A"/>
</g>
<g clip-path="url(#clip3_32_178)">
<path d="M280.782 23.2476L288.128 28.0026L295.474 32.7575C295.689 32.8963 295.934 32.9817 296.188 33.0063C296.442 33.0309 296.698 32.9939 296.933 32.8986C297.168 32.8033 297.374 32.6525 297.534 32.4596C297.695 32.2666 297.804 32.0372 297.852 31.7916L299.557 23.188C299.596 22.9904 299.674 22.8029 299.787 22.6362C299.901 22.4695 300.046 22.3268 300.217 22.2164L304.689 19.3121C304.903 19.173 305.078 18.9834 305.198 18.7602C305.318 18.537 305.379 18.2872 305.376 18.0332C305.374 17.7792 305.307 17.5289 305.182 17.3048C305.057 17.0807 304.878 16.8897 304.661 16.749L291.93 8.5083C291.713 8.36787 291.464 8.28213 291.207 8.25876C290.949 8.23539 290.69 8.27512 290.454 8.37439C290.218 8.47366 290.011 8.62938 289.852 8.82758C289.694 9.02579 289.588 9.2603 289.545 9.5101L288.646 14.7269C288.612 14.9254 288.538 15.1147 288.429 15.2841C288.32 15.4535 288.178 15.5997 288.01 15.7141L280.724 20.7047C280.516 20.847 280.347 21.0379 280.233 21.2605C280.118 21.4831 280.061 21.7307 280.067 21.9816C280.073 22.2325 280.141 22.4791 280.265 22.6998C280.39 22.9205 280.567 23.1086 280.782 23.2476V23.2476Z" fill="#B4E2BA"/>
<path d="M282.147 37.0461L288.128 28.0026M288.128 28.0026L280.782 23.2477C280.567 23.1086 280.39 22.9206 280.265 22.6999C280.141 22.4792 280.073 22.2326 280.067 21.9817C280.061 21.7307 280.118 21.4831 280.233 21.2605C280.347 21.0379 280.516 20.8471 280.724 20.7047L288.01 15.7142C288.178 15.5997 288.32 15.4536 288.429 15.2842C288.538 15.1148 288.612 14.9254 288.646 14.727L289.545 9.51015C289.588 9.26035 289.694 9.02584 289.852 8.82764C290.011 8.62943 290.218 8.47372 290.454 8.37444C290.691 8.27517 290.949 8.23544 291.207 8.25881C291.464 8.28218 291.713 8.36793 291.93 8.50836L304.661 16.749C304.878 16.8898 305.057 17.0807 305.182 17.3049C305.307 17.529 305.374 17.7792 305.376 18.0332C305.379 18.2872 305.318 18.537 305.198 18.7602C305.078 18.9834 304.903 19.1731 304.689 19.3122L300.217 22.2164C300.046 22.3269 299.901 22.4695 299.787 22.6363C299.674 22.803 299.596 22.9905 299.557 23.188L297.852 31.7916C297.804 32.0373 297.695 32.2666 297.534 32.4596C297.374 32.6526 297.168 32.8033 296.933 32.8987C296.698 32.994 296.442 33.0309 296.188 33.0064C295.934 32.9818 295.689 32.8964 295.474 32.7576L288.128 28.0026Z" stroke="#B4E2BA" stroke-width="2" stroke-linecap="round" stroke-linejoin="round"/>
</g>
<defs>
<clipPath id="clip0_32_178">
<rect width="78.4861" height="80.4199" fill="white" transform="matrix(0.99571 -0.0925238 0.0958316 0.995398 128.605 142.177)"/>
</clipPath>
<clipPath id="clip1_32_178">
<rect width="76.5718" height="80.4199" fill="white" transform="matrix(0.99571 -0.0925238 0.0958316 0.995398 185.027 47.9294)"/>
</clipPath>
<clipPath id="clip2_32_178">
<rect width="98.5862" height="80.4199" fill="white" transform="matrix(0.99571 -0.0925238 0.0958316 0.995398 42.662 61.1583)"/>
</clipPath>
<clipPath id="clip3_32_178">
<rect width="36.9732" height="37.3672" fill="white" transform="matrix(-0.214451 -0.977139 -0.980486 0.194844 314 37.0001)"/>
</clipPath>
</defs>
</svg>
