<svg width="128" height="128" viewBox="0 0 128 128" fill="none" xmlns="http://www.w3.org/2000/svg">
<path d="M47.0667 64L54.9333 56.1333C56 55.0667 56.5333 53.8222 56.5333 52.4C56.5333 50.9778 56 49.7333 54.9333 48.6667C53.8667 47.6 52.6009 47.0667 51.136 47.0667C49.6676 47.0667 48.4 47.6 47.3333 48.6667L35.7333 60.2667C35.2 60.8 34.8231 61.3778 34.6027 62C34.3787 62.6222 34.2667 63.2889 34.2667 64C34.2667 64.7111 34.3787 65.3778 34.6027 66C34.8231 66.6222 35.2 67.2 35.7333 67.7333L47.3333 79.3333C48.4 80.4 49.6676 80.9333 51.136 80.9333C52.6009 80.9333 53.8667 80.4 54.9333 79.3333C56 78.2667 56.5333 77.0222 56.5333 75.6C56.5333 74.1778 56 72.9333 54.9333 71.8667L47.0667 64ZM80.9333 64L73.0667 71.8667C72 72.9333 71.4667 74.1778 71.4667 75.6C71.4667 77.0222 72 78.2667 73.0667 79.3333C74.1333 80.4 75.4009 80.9333 76.8693 80.9333C78.3342 80.9333 79.6 80.4 80.6667 79.3333L92.2667 67.7333C92.8 67.2 93.1769 66.6222 93.3973 66C93.6213 65.3778 93.7333 64.7111 93.7333 64C93.7333 63.2889 93.6213 62.6222 93.3973 62C93.1769 61.3778 92.8 60.8 92.2667 60.2667L80.6667 48.6667C80.1333 48.1333 79.5342 47.7333 78.8693 47.4667C78.2009 47.2 77.5342 47.0667 76.8693 47.0667C76.2009 47.0667 75.5342 47.2 74.8693 47.4667C74.2009 47.7333 73.6 48.1333 73.0667 48.6667C72 49.7333 71.4667 50.9778 71.4667 52.4C71.4667 53.8222 72 55.0667 73.0667 56.1333L80.9333 64ZM26.6667 112C23.7333 112 21.2213 110.956 19.1307 108.869C17.0436 106.779 16 104.267 16 101.333V26.6667C16 23.7333 17.0436 21.2213 19.1307 19.1307C21.2213 17.0436 23.7333 16 26.6667 16H101.333C104.267 16 106.779 17.0436 108.869 19.1307C110.956 21.2213 112 23.7333 112 26.6667V101.333C112 104.267 110.956 106.779 108.869 108.869C106.779 110.956 104.267 112 101.333 112H26.6667Z" fill="#FBEEB3"/>
</svg>
