<svg width="128" height="128" viewBox="0 0 128 128" fill="none" xmlns="http://www.w3.org/2000/svg">
<path d="M106.667 106.667C88.2667 106.667 64 117.333 64 117.333V58.6667C64 58.6667 88 48 112 48L106.667 106.667Z" fill="#5C6BC0"/>
<path d="M21.3333 106.667C39.7333 106.667 64 117.333 64 117.333V58.6667C64 58.6667 40 48 16 48L21.3333 106.667Z" fill="#7986CB"/>
<path d="M64 53.3334C75.7821 53.3334 85.3334 43.7821 85.3334 32C85.3334 20.2179 75.7821 10.6667 64 10.6667C52.2179 10.6667 42.6667 20.2179 42.6667 32C42.6667 43.7821 52.2179 53.3334 64 53.3334Z" fill="#FFB74D"/>
<path d="M109.333 85.3334H112C113.6 85.3334 114.667 84.2667 114.667 82.6667V72C114.667 70.4 113.6 69.3334 112 69.3334H109.333C104.8 69.3334 101.333 72.8 101.333 77.3334C101.333 81.8667 104.8 85.3334 109.333 85.3334ZM18.6667 69.3334H16C14.4 69.3334 13.3333 70.4 13.3333 72V82.6667C13.3333 84.2667 14.4 85.3334 16 85.3334H18.6667C23.2 85.3334 26.6667 81.8667 26.6667 77.3334C26.6667 72.8 23.2 69.3334 18.6667 69.3334Z" fill="#FFB74D"/>
</svg>
