<svg width="128" height="128" viewBox="0 0 128 128" fill="none" xmlns="http://www.w3.org/2000/svg">
<path d="M43.34 29.47L42.37 32.81L47.18 33.61L45.19 29.47H43.34Z" fill="#616161"/>
<path d="M102.12 51.29C88.59 65.42 83.22 68.85 47.42 86.16C29.58 94.78 11.15 95.38 5.19999 99.24C4.76999 99.52 4.35999 99.8 3.95999 100.07V117.83C4.17999 117.87 4.30999 117.89 4.30999 117.89H50.69L123.96 88.95V25.56C118.69 32.54 111.2 41.81 102.12 51.29Z" fill="url(#paint0_radial_62_2)"/>
<path d="M50.59 117.39L4.38999 117.4C4.37999 117.4 4.20999 117.37 3.95999 117.32V118.33C4.12999 118.36 4.26999 118.38 4.30999 118.39H50.69C50.75 118.39 50.81 118.38 50.87 118.35L123.96 89.48V88.41L50.59 117.39V117.39Z" fill="#B3E5FC"/>
<path d="M106.28 55.24C75.66 85.27 48.01 87.05 29.28 98.05C18.78 104.22 9.13999 110.08 3.95999 113.25V123.82H123.96V42.87C118.03 46.03 111.41 50.22 106.28 55.24V55.24Z" fill="url(#paint1_radial_62_2)"/>
<path d="M41.79 123.82H42.56C45.77 123.72 48.38 122.4 50 121.01C50 121.01 54.72 117.22 58.39 115.56L93.13 101.03C95.31 100.12 99.01 99.54 102.45 98.79C115.67 95.89 112.01 87.86 110.16 85.16C108.34 81.81 103.48 80.94 99.58 82.32C94.19 84.23 89.41 88.49 87.18 89.43L55.4 102.72C51.01 104 45.16 104 40.5 105.34C34.85 106.95 33.24 110.03 33.17 114.7C33.1 119.6 36.95 123.62 41.79 123.82V123.82Z" fill="#B3E5FC"/>
<path d="M106.59 81.9C104.58 78.23 99.33 77.47 95.42 78.85C91.93 80.09 88.66 82.31 86.27 83.94C84.93 84.86 83.76 85.65 83 85.97L51.26 99.24C49.12 99.86 46.66 100.17 44.06 100.5C41.45 100.83 38.75 101.17 36.37 101.86C30.99 103.39 28.76 106.24 28.68 111.69C28.64 114.26 29.62 116.68 31.42 118.51C33.22 120.33 35.62 121.34 38.18 121.34C42.44 121.34 45.3 119.28 46.32 118.4C46.37 118.36 51.03 114.63 54.59 113.02L89.33 98.49C90.9 97.83 93.31 97.35 95.86 96.84C96.76 96.66 97.67 96.48 98.56 96.28C103.74 95.14 106.96 93.1 108.1 90.2C109.51 86.64 107.32 82.97 106.59 81.9V81.9Z" fill="url(#paint2_linear_62_2)"/>
<path d="M86.65 66.12H86.64C86.62 66.02 86.61 65.91 86.58 65.81C86.3476 64.8197 85.8927 63.8954 85.2499 63.107C84.6071 62.3187 83.7932 61.687 82.87 61.26L82.88 61.24L65.28 53.38L65.23 53.49C65.2 53.48 65.17 53.46 65.14 53.44C64.27 53.05 63.34 52.87 62.43 52.87C59.87 52.87 57.43 54.35 56.32 56.83C56.16 57.18 56.05 57.54 55.96 57.89C53.79 56.03 50.64 54.59 48.03 54.59C47.11 54.59 46.26 54.77 45.54 55.17C41.94 57.17 43.01 63.94 45 67.53C45.02 67.56 45.04 67.6 45.06 67.63L45.05 67.64L51.82 79.85C52.44 80.97 52.57 82.29 52.18 83.5L47.16 99.2L48.13 101.67L60.83 101.57L66.96 81.79C67.04 81.59 67.12 81.39 67.18 81.18C67.24 80.97 67.29 80.76 67.34 80.55L67.37 80.45C67.83 78.22 67.05 76.3 65.91 74.27L61.61 66.53L72.56 71.42C73.0685 71.645 73.5176 71.9853 73.8717 72.4141C74.2258 72.8428 74.4752 73.3481 74.6 73.89L78.14 89.05L91.28 85.98L86.65 66.12V66.12Z" fill="#7C7C7C"/>
<path d="M93.91 38.48C93.8678 38.4113 93.8091 38.3543 93.7393 38.3142C93.6694 38.274 93.5906 38.2519 93.51 38.25L80.87 37.63C79.61 37.13 66.27 31.93 63.85 31.85C63.58 31.81 63.41 31.99 63.35 32.22L60.3 43.35C60.24 43.59 60.35 43.84 60.58 43.94C61.08 44.17 72.99 49.47 77.12 50.37C77.71 50.5 78.43 50.56 79.24 50.56C84.27 50.56 92.52 48.35 92.92 48.24C93.01 48.22 93.09 48.17 93.16 48.1C97.16 43.78 93.95 38.54 93.91 38.48V38.48Z" fill="url(#paint3_linear_62_2)"/>
<path d="M68.94 42.94C68.54 40.62 68.14 38.23 67.88 35.9C67.8 33.75 66.99 32.03 65.53 30.93C64.14 29.88 62.24 29.39 59.88 29.48L50.99 29.81C46.86 29.84 42.7 33.72 42.86 38.14L42.97 56.89C43.11 60.52 44.15 63.1 46.07 64.58C47.26 65.5 48.77 65.95 50.59 65.95C51.54 65.95 52.58 65.82 53.69 65.57C64.31 63.15 70.22 59.84 70.32 56.25C70.44 51.69 69.68 47.24 68.94 42.94V42.94Z" fill="url(#paint4_linear_62_2)"/>
<path d="M99.45 38.62C99.39 38.6 92.83 36.56 90.42 41.92C90.41 41.95 90.39 41.99 90.39 42.02L90.34 42.25C89.68 45.18 91.49 46.92 92.66 47.48C93.8 48.03 96.64 47.94 97.21 47.91C97.64 48.01 98.06 48.13 98.45 48.24C99.22 48.46 100.01 48.68 100.74 48.68C101.77 48.68 102.71 48.24 103.36 46.71L103.39 46.62L103.44 46.39C104.08 43.57 102.92 40 99.45 38.62V38.62ZM33.81 62.31L32.96 61.48C30.98 59.5 26.25 62.08 25.25 62.66C23.98 62.62 21.71 63.18 21.14 65.57C20.71 67.37 21.05 68.95 22.1 70.13C23.24 71.4 25.15 72.13 27.25 72.13C27.62 72.13 27.99 72.11 28.37 72.06C34.86 71.25 34.22 65.2 33.95 62.61C33.9392 62.4969 33.8898 62.3909 33.81 62.31V62.31Z" fill="#26A69A"/>
<path d="M51.62 40.74C51.62 40.58 51.62 40.43 51.61 40.27C51.39 37.46 49.34 35.09 46.56 34.63C45.62 34.47 44.72 34.54 43.88 34.76C43.8 34.76 43.71 34.74 43.62 34.74C42.83 34.74 42.07 34.9 41.41 35.26C35.71 37.38 25.62 41.26 24.97 46.89C24.43 51.64 24.81 63.49 24.81 63.49C26.33 64.64 27.85 65.03 29.22 65.03C32.13 65.03 34.34 63.27 34.34 63.27L34.55 62.34L34.56 62.33C34.56 62.33 34.58 62.25 34.6 62.12L37.32 50.15C37.32 50.15 45.48 47.33 47.67 46.55C49.49 45.88 51.83 43.32 51.62 40.74V40.74Z" fill="url(#paint5_linear_62_2)"/>
<path d="M69.69 10.19C66.52 6.88001 61.4 4.57001 56.23 4.57001C54.81 4.57001 53.38 4.74001 52 5.12001C44.69 7.11001 42.64 10.63 41.85 12.37C41.46 13.22 41.31 14.2 40.74 14.91C39.97 15.87 38.65 16.54 37.82 17.53C37.5 17.91 37.19 18.41 37.39 18.86C37.57 19.27 38.08 19.39 38.53 19.46C43.54 20.18 57.2 19.12 59.68 21.11C61.05 22.21 60.3 28.09 60.34 30.13C60.38 32.03 60.44 31.8 62.15 32.63C62.72 32.9 63.23 33.03 63.69 33.03C65.91 33.03 67.11 30.25 68.83 28.13C72.85 23.17 75.4 16.1 69.69 10.19V10.19Z" fill="url(#paint6_linear_62_2)"/>
<path d="M61.56 96.88L48.25 98.69C47.54 98.8 47.02 99.41 47.02 100.13V101.88C47.02 103.04 47.72 104.08 48.8 104.51C50.64 105.24 53.51 106.31 55.46 106.73C56.14 106.88 56.81 106.94 57.47 106.94C60.38 106.94 63.03 105.73 64.2 105.1C64.6 104.88 64.88 104.49 64.93 104.04C65.3 100.64 64.97 97.34 61.56 96.88V96.88ZM90.42 84.12L77.44 86.27L77.63 90C77.68 90.96 78.4 91.74 79.35 91.86C81.95 92.17 86.97 92.75 89.25 92.87C89.52 92.88 89.79 92.89 90.05 92.89C93.44 92.89 95.72 91.79 96.71 91.18C97.1 90.94 97.33 90.51 97.32 90.05C97.25 86.81 93.81 84.58 90.42 84.12V84.12Z" fill="#4568AD"/>
<path d="M61.03 23.37L60.06 21.31C59.66 20.01 54.47 19.99 54.47 19.99L55.02 32.02L55.07 33.03L55.11 34.01C55.11 34.01 58.9 33.39 60.4 32.56C60.6 32.44 60.76 32.33 60.86 32.21L61.04 31.4L61.7 28.46L69.3 26.82C69.51 26.6 69.72 26.37 69.96 26.13C70.08 25.99 70.22 25.85 70.36 25.71C71.16 24.9 71.66 24.23 72.05 23.62C72.17 23.44 72.28 23.27 72.38 23.1L61.03 23.37V23.37Z" fill="#616161"/>
<path d="M79.49 26.73C73.54 30.35 74.31 32.94 68.88 37.6C64.03 41.76 58.53 43.81 51.28 40.71C39.43 35.63 41.19 29.84 41.19 29.84C41.19 29.84 44.04 33.72 55.68 33.2C63.95 32.83 65.77 30.35 69.14 26.99C72.51 23.63 70.18 21.3 77.42 17.67C84.67 14.05 92.43 15.08 92.43 15.08L102 23.1C102 23.1 85.44 23.1 79.49 26.73Z" fill="#039BE5"/>
<path d="M106.45 74.95C106.46 74.94 106.47 74.94 106.48 74.92C107.71 73.84 106.87 71.72 105.17 71.99C105.12 71.99 105.08 72 105.04 72.01C104.06 72.25 103.41 73.09 103.13 74.02C102.99 74.5 102.87 74.98 102.77 75.47C102.72 75.71 102.66 75.96 102.64 76.2C102.63 76.34 102.7 76.59 102.86 76.62C103.09 76.67 103.51 76.48 103.73 76.4C104.7 76.09 105.66 75.64 106.45 74.95V74.95ZM118.47 63.04C118.48 63.03 118.48 63.02 118.5 63.01C119.6 61.79 121.71 62.66 121.41 64.36C121.41 64.4 121.39 64.45 121.38 64.49C121.13 65.47 120.28 66.11 119.34 66.38C118.86 66.52 118.37 66.63 117.88 66.72C117.64 66.77 117.39 66.82 117.15 66.84C117.01 66.85 116.76 66.77 116.73 66.61C116.68 66.38 116.88 65.96 116.96 65.75C117.31 64.78 117.77 63.82 118.47 63.04V63.04ZM100.5 62.29C100.51 62.28 100.51 62.27 100.51 62.25C101.19 60.56 99.29 58.87 97.74 60L97.62 60.09C96.77 60.81 96.53 61.98 96.72 63.05C96.82 63.6 96.94 64.14 97.09 64.67C97.17 64.93 97.23 65.21 97.33 65.46C97.39 65.6 97.59 65.81 97.76 65.77C98.02 65.71 98.33 65.31 98.51 65.12C99.34 64.3 100.07 63.37 100.5 62.29V62.29ZM113.85 53C113.86 52.99 113.86 52.98 113.87 52.97C114.97 51.81 113.97 49.83 112.34 50.24C112.3 50.25 112.25 50.26 112.21 50.28C111.28 50.59 110.72 51.47 110.53 52.39C110.43 52.87 110.36 53.35 110.3 53.83C110.28 54.07 110.24 54.31 110.24 54.55C110.24 54.68 110.34 54.92 110.49 54.94C110.72 54.97 111.1 54.75 111.31 54.66C112.25 54.25 113.15 53.73 113.85 53V53ZM112.59 62.13L112.62 62.1C113.99 60.62 112.69 58.14 110.65 58.69C110.6 58.7 110.54 58.72 110.49 58.74C109.33 59.15 108.63 60.27 108.41 61.44C108.3 62.04 108.21 62.65 108.16 63.26C108.13 63.56 108.09 63.87 108.09 64.17C108.1 64.33 108.22 64.63 108.41 64.65C108.7 64.69 109.19 64.4 109.44 64.28C110.6 63.74 111.72 63.07 112.59 62.13V62.13Z" fill="white"/>
<path d="M45.87 32.89C45.6 32.43 45.22 31.8 44.75 30.99L43.41 30.89C43.26 31.46 42.58 33.33 42.07 33.62C41.75 33.8 41.07 32.89 40.58 32.14C40.21 31.56 40.14 30.85 40.39 30.2C40.5 29.91 40.62 29.61 40.7 29.41C40.92 28.83 41.25 28.31 41.45 27.73C41.66 27.12 41.29 26.44 41.12 25.83C40.92 25.15 40.72 24.48 40.51 23.79C40.46 23.61 39.88 21.23 39.75 21.23C39.75 21.23 39.21 21.22 39.13 20.56C39.08 20.16 39.06 19.44 40.19 19.43L52.33 19.72C53.95 19.76 55.68 19.79 57.01 22.17C58.02 23.99 57.57 31.14 57.09 32.08C56.86 32.54 56.53 33.48 55.11 33.99C54.05 34.36 49.81 34.13 47.7 33.98C46.94 33.96 46.27 33.55 45.87 32.89V32.89Z" fill="#E3F2FD"/>
<path d="M49.83 31.38C49.1226 31.292 48.4504 31.0205 47.8803 30.5925C47.3102 30.1644 46.862 29.5948 46.58 28.94C46.01 27.63 45.33 26.12 45.07 25.9C44.6 25.49 42.77 25.56 42.55 25.98C42.33 26.41 41.69 29.34 41.12 30.33C38.86 25.33 39.57 21.37 39.57 21.37C39.57 21.37 42.07 21.36 42.96 21.37C44.55 21.39 46.14 21.42 47.73 21.45C50.26 21.5 52.79 21.01 53.86 23.93C54.71 26.26 54.14 31 53.23 31.29C52.37 31.6 51.01 31.53 49.83 31.38V31.38Z" fill="url(#paint7_linear_62_2)"/>
<defs>
<radialGradient id="paint0_radial_62_2" cx="0" cy="0" r="1" gradientUnits="userSpaceOnUse" gradientTransform="translate(25.7173 78.5323) rotate(-24.6199) scale(122.641 18.5214)">
<stop offset="0.334" stop-color="#E1F5FE"/>
<stop offset="1" stop-color="#B3E5FC"/>
</radialGradient>
<radialGradient id="paint1_radial_62_2" cx="0" cy="0" r="1" gradientUnits="userSpaceOnUse" gradientTransform="translate(52.7345 91.1086) rotate(-27.5491) scale(157.907 76.57)">
<stop offset="0.214" stop-color="white"/>
<stop offset="1" stop-color="#B3E5FC"/>
</radialGradient>
<linearGradient id="paint2_linear_62_2" x1="28.669" y1="99.772" x2="108.563" y2="99.772" gradientUnits="userSpaceOnUse">
<stop offset="0.171" stop-color="#EF5350"/>
<stop offset="0.62" stop-color="#EA4643"/>
<stop offset="0.985" stop-color="#E53935"/>
</linearGradient>
<linearGradient id="paint3_linear_62_2" x1="60.29" y1="41.2" x2="95.165" y2="41.2" gradientUnits="userSpaceOnUse">
<stop offset="0.034" stop-color="#ED6D23"/>
<stop offset="0.326" stop-color="#F37F21"/>
<stop offset="0.46" stop-color="#F78C1F"/>
</linearGradient>
<linearGradient id="paint4_linear_62_2" x1="56.594" y1="36.821" x2="56.594" y2="63.821" gradientUnits="userSpaceOnUse">
<stop offset="0.189" stop-color="#ED6D23"/>
<stop offset="0.569" stop-color="#F37F21"/>
<stop offset="0.796" stop-color="#F78C1F"/>
</linearGradient>
<linearGradient id="paint5_linear_62_2" x1="28.808" y1="64.428" x2="40.738" y2="38.963" gradientUnits="userSpaceOnUse">
<stop offset="0.189" stop-color="#ED6D23"/>
<stop offset="0.326" stop-color="#F37F21"/>
<stop offset="0.46" stop-color="#F78C1F"/>
<stop offset="1" stop-color="#ED6D23"/>
</linearGradient>
<linearGradient id="paint6_linear_62_2" x1="51.244" y1="10.009" x2="62.407" y2="29.823" gradientUnits="userSpaceOnUse">
<stop offset="0.176" stop-color="#EF5350"/>
<stop offset="0.623" stop-color="#EA4643"/>
<stop offset="0.985" stop-color="#E53935"/>
</linearGradient>
<linearGradient id="paint7_linear_62_2" x1="39.1333" y1="25.2475" x2="54.3571" y2="26.8839" gradientUnits="userSpaceOnUse">
<stop offset="0.365" stop-color="#90CAF9"/>
<stop offset="0.987" stop-color="#42A5F5"/>
</linearGradient>
</defs>
</svg>
