<svg width="128" height="128" viewBox="0 0 128 128" fill="none" xmlns="http://www.w3.org/2000/svg">
<path d="M72.3136 35.1168C73.0938 34.3899 73.8985 33.6897 74.7264 33.0176C78.4576 29.9904 84.16 26.3424 90.6752 25.7024C92.5675 25.5042 94.4788 25.5905 96.3456 25.9584C104.269 27.5008 110.086 33.792 113.389 38.3104C117.197 43.5008 114.029 49.9584 108.672 51.6864L81.92 60.3456L62.0928 85.984C55.8848 94.0096 43.0976 88.1792 45.088 78.2272L46.9632 68.8576L27.648 75.52C25.9614 76.1011 24.1605 76.2708 22.3951 76.0152C20.6296 75.7596 18.9508 75.086 17.4983 74.0504C16.0458 73.0149 14.8617 71.6474 14.0445 70.0618C13.2272 68.4762 12.8006 66.7183 12.8 64.9344V45.824C12.8 45.3376 12.8384 44.8768 12.9216 44.4352C13.9264 38.6944 21.1328 36.6464 25.0944 40.4672C25.7088 41.0432 26.2464 41.7728 26.6624 42.6432L30.4576 50.4768L67.6096 38.0928C69.2608 37.5424 70.8288 36.4992 72.3136 35.1168ZM34.4576 42.3936L58.3296 34.4384L48.0512 27.392C46.35 26.2247 44.3352 25.6 42.272 25.6C33.792 25.6 29.0048 35.36 34.208 42.0672L34.4576 42.3936V42.3936ZM17.6 105.6C16.327 105.6 15.1061 106.106 14.2059 107.006C13.3057 107.906 12.8 109.127 12.8 110.4C12.8 111.673 13.3057 112.894 14.2059 113.794C15.1061 114.694 16.327 115.2 17.6 115.2H110.4C111.673 115.2 112.894 114.694 113.794 113.794C114.694 112.894 115.2 111.673 115.2 110.4C115.2 109.127 114.694 107.906 113.794 107.006C112.894 106.106 111.673 105.6 110.4 105.6H17.6Z" fill="#B4E2BA"/>
</svg>
